<svg width="192" height="53" viewBox="0 0 192 53" fill="none" xmlns="http://www.w3.org/2000/svg">
<path d="M11.375 14.43C13.965 14.43 16.2283 14.9433 18.165 15.97C20.1017 16.9967 21.595 18.4433 22.645 20.31C23.7183 22.1533 24.255 24.2883 24.255 26.715C24.255 29.1183 23.7183 31.2533 22.645 33.12C21.595 34.9867 20.09 36.4333 18.13 37.46C16.1933 38.4867 13.9417 39 11.375 39H2.17V14.43H11.375ZM10.99 33.82C13.2533 33.82 15.015 33.2017 16.275 31.965C17.535 30.7283 18.165 28.9783 18.165 26.715C18.165 24.4517 17.535 22.69 16.275 21.43C15.015 20.17 13.2533 19.54 10.99 19.54H8.155V33.82H10.99ZM143.326 14.43L134.611 39H127.121L118.406 14.43H124.776L130.866 32.98L136.991 14.43H143.326Z" fill="black"/>
<path d="M46.0097 28.92C46.0097 29.48 45.9747 30.0633 45.9047 30.67H32.3597C32.453 31.8833 32.838 32.8167 33.5147 33.47C34.2147 34.1 35.0664 34.415 36.0697 34.415C37.563 34.415 38.6014 33.785 39.1847 32.525H45.5547C45.228 33.8083 44.633 34.9633 43.7697 35.99C42.9297 37.0167 41.868 37.8217 40.5847 38.405C39.3014 38.9883 37.8664 39.28 36.2797 39.28C34.3664 39.28 32.663 38.8717 31.1697 38.055C29.6764 37.2383 28.5097 36.0717 27.6697 34.555C26.8297 33.0383 26.4097 31.265 26.4097 29.235C26.4097 27.205 26.818 25.4317 27.6347 23.915C28.4747 22.3983 29.6414 21.2317 31.1347 20.415C32.628 19.5983 34.343 19.19 36.2797 19.19C38.1697 19.19 39.8497 19.5867 41.3197 20.38C42.7897 21.1733 43.933 22.305 44.7497 23.775C45.5897 25.245 46.0097 26.96 46.0097 28.92ZM39.8847 27.345C39.8847 26.3183 39.5347 25.5017 38.8347 24.895C38.1347 24.2883 37.2597 23.985 36.2097 23.985C35.2064 23.985 34.3547 24.2767 33.6547 24.86C32.978 25.4433 32.558 26.2717 32.3947 27.345H39.8847ZM55.1521 22.235C55.7354 21.325 56.5404 20.59 57.5671 20.03C58.5937 19.47 59.7954 19.19 61.1721 19.19C62.7821 19.19 64.2404 19.5983 65.5471 20.415C66.8537 21.2317 67.8804 22.3983 68.6271 23.915C69.3971 25.4317 69.7821 27.1933 69.7821 29.2C69.7821 31.2067 69.3971 32.98 68.6271 34.52C67.8804 36.0367 66.8537 37.215 65.5471 38.055C64.2404 38.8717 62.7821 39.28 61.1721 39.28C59.8187 39.28 58.6171 39 57.5671 38.44C56.5404 37.88 55.7354 37.1567 55.1521 36.27V48.31H49.1671V19.47H55.1521V22.235ZM63.6921 29.2C63.6921 27.7067 63.2721 26.54 62.4321 25.7C61.6154 24.8367 60.6004 24.405 59.3871 24.405C58.1971 24.405 57.1821 24.8367 56.3421 25.7C55.5254 26.5633 55.1171 27.7417 55.1171 29.235C55.1171 30.7283 55.5254 31.9067 56.3421 32.77C57.1821 33.6333 58.1971 34.065 59.3871 34.065C60.5771 34.065 61.5921 33.6333 62.4321 32.77C63.2721 31.8833 63.6921 30.6933 63.6921 29.2ZM71.732 29.2C71.732 27.1933 72.1053 25.4317 72.852 23.915C73.622 22.3983 74.6603 21.2317 75.967 20.415C77.2736 19.5983 78.732 19.19 80.342 19.19C81.7186 19.19 82.9203 19.47 83.947 20.03C84.997 20.59 85.802 21.325 86.362 22.235V19.47H92.347V39H86.362V36.235C85.7786 37.145 84.962 37.88 83.912 38.44C82.8853 39 81.6836 39.28 80.307 39.28C78.7203 39.28 77.2736 38.8717 75.967 38.055C74.6603 37.215 73.622 36.0367 72.852 34.52C72.1053 32.98 71.732 31.2067 71.732 29.2ZM86.362 29.235C86.362 27.7417 85.942 26.5633 85.102 25.7C84.2853 24.8367 83.282 24.405 82.092 24.405C80.902 24.405 79.887 24.8367 79.047 25.7C78.2303 26.54 77.822 27.7067 77.822 29.2C77.822 30.6933 78.2303 31.8833 79.047 32.77C79.887 33.6333 80.902 34.065 82.092 34.065C83.282 34.065 84.2853 33.6333 85.102 32.77C85.942 31.9067 86.362 30.7283 86.362 29.235ZM108.577 19.26C110.864 19.26 112.684 20.0067 114.037 21.5C115.414 22.97 116.102 25 116.102 27.59V39H110.152V28.395C110.152 27.0883 109.814 26.0733 109.137 25.35C108.46 24.6267 107.55 24.265 106.407 24.265C105.264 24.265 104.354 24.6267 103.677 25.35C103 26.0733 102.662 27.0883 102.662 28.395V39H96.6768V19.47H102.662V22.06C103.269 21.1967 104.085 20.52 105.112 20.03C106.139 19.5167 107.294 19.26 108.577 19.26ZM148.837 17.44C147.787 17.44 146.924 17.1367 146.247 16.53C145.594 15.9 145.267 15.13 145.267 14.22C145.267 13.2867 145.594 12.5167 146.247 11.91C146.924 11.28 147.787 10.965 148.837 10.965C149.864 10.965 150.704 11.28 151.357 11.91C152.034 12.5167 152.372 13.2867 152.372 14.22C152.372 15.13 152.034 15.9 151.357 16.53C150.704 17.1367 149.864 17.44 148.837 17.44ZM151.812 19.47V39H145.827V19.47H151.812ZM167.034 33.925V39H163.989C161.819 39 160.128 38.475 158.914 37.425C157.701 36.3517 157.094 34.6133 157.094 32.21V24.44H154.714V19.47H157.094V14.71H163.079V19.47H166.999V24.44H163.079V32.28C163.079 32.8633 163.219 33.2833 163.499 33.54C163.779 33.7967 164.246 33.925 164.899 33.925H167.034ZM188.778 28.92C188.778 29.48 188.743 30.0633 188.673 30.67H175.128C175.222 31.8833 175.607 32.8167 176.283 33.47C176.983 34.1 177.835 34.415 178.838 34.415C180.332 34.415 181.37 33.785 181.953 32.525H188.323C187.997 33.8083 187.402 34.9633 186.538 35.99C185.698 37.0167 184.637 37.8217 183.353 38.405C182.07 38.9883 180.635 39.28 179.048 39.28C177.135 39.28 175.432 38.8717 173.938 38.055C172.445 37.2383 171.278 36.0717 170.438 34.555C169.598 33.0383 169.178 31.265 169.178 29.235C169.178 27.205 169.587 25.4317 170.403 23.915C171.243 22.3983 172.41 21.2317 173.903 20.415C175.397 19.5983 177.112 19.19 179.048 19.19C180.938 19.19 182.618 19.5867 184.088 20.38C185.558 21.1733 186.702 22.305 187.518 23.775C188.358 25.245 188.778 26.96 188.778 28.92ZM182.653 27.345C182.653 26.3183 182.303 25.5017 181.603 24.895C180.903 24.2883 180.028 23.985 178.978 23.985C177.975 23.985 177.123 24.2767 176.423 24.86C175.747 25.4433 175.327 26.2717 175.163 27.345H182.653Z" fill="#FFC120"/>
</svg>
