<svg width="62" height="25" viewBox="0 0 62 25" fill="none" xmlns="http://www.w3.org/2000/svg">
<path d="M57.9393 10.6871H3.41661V18.65H57.9393V10.6871Z" fill="#FFC120"/>
<g opacity="0.5">
<path d="M57.9393 10.6871H3.41661V18.65H57.9393V10.6871Z" fill="black"/>
</g>
<path d="M11.0968 23.8169C13.9939 23.6229 16.1844 21.128 15.9894 18.2445C15.7944 15.3609 13.2879 13.1807 10.3908 13.3747C7.49369 13.5688 5.30319 16.0636 5.49815 18.9472C5.69312 21.8307 8.19971 24.011 11.0968 23.8169Z" fill="#263238"/>
<path d="M5.48718 18.5071C5.48718 18.512 5.48718 18.5169 5.48718 18.5208C5.47718 19.208 5.60327 19.8904 5.85824 20.5291C6.11322 21.1678 6.49208 21.7503 6.97321 22.2432C7.45435 22.7362 8.02832 23.13 8.66236 23.4022C9.2964 23.6743 9.97809 23.8195 10.6685 23.8295C11.3589 23.8395 12.0446 23.714 12.6863 23.4602C13.328 23.2064 13.9132 22.8293 14.4084 22.3504C14.9037 21.8715 15.2994 21.3002 15.5728 20.6692C15.8463 20.0381 15.9922 19.3596 16.0022 18.6724C16.0022 18.6675 16.0022 18.6626 16.0022 18.6587L5.48718 18.5071Z" fill="#263238"/>
<path d="M7.05264 18.5432C7.04182 19.2699 7.24776 19.9833 7.6444 20.5935C8.04104 21.2036 8.61057 21.6829 9.28094 21.9708C9.9513 22.2587 10.6924 22.3423 11.4105 22.2109C12.1286 22.0796 12.7914 21.7392 13.3151 21.2328C13.8388 20.7265 14.1999 20.0769 14.3526 19.3663C14.5054 18.6557 14.443 17.916 14.1733 17.2406C13.9036 16.5653 13.4388 15.9848 12.8376 15.5725C12.2364 15.1601 11.5258 14.9345 10.7958 14.9242C9.81732 14.9103 8.87338 15.2838 8.17147 15.9624C7.46956 16.6411 7.06713 17.5694 7.05264 18.5432Z" fill="#FAFAFA"/>
<path d="M10.7958 14.9231C9.81724 14.909 8.87315 15.2824 8.17118 15.9611C7.46921 16.6398 7.06686 17.5682 7.05263 18.5421L14.4338 18.6488C14.4477 17.6745 14.0722 16.7347 13.39 16.036C12.7077 15.3374 11.7746 14.937 10.7958 14.9231Z" fill="#E0E0E0"/>
<path d="M8.49526 18.5637C8.48869 19.0063 8.61416 19.4409 8.85581 19.8126C9.09745 20.1842 9.4444 20.4762 9.85278 20.6516C10.2612 20.8269 10.7126 20.8778 11.1501 20.7977C11.5875 20.7177 11.9912 20.5103 12.3102 20.2018C12.6292 19.8934 12.8491 19.4976 12.9422 19.0648C13.0352 18.6319 12.9971 18.1812 12.8328 17.7699C12.6685 17.3585 12.3853 17.0049 12.019 16.7538C11.6527 16.5026 11.2199 16.3652 10.7751 16.359C10.48 16.3547 10.1869 16.4084 9.91257 16.5169C9.63826 16.6254 9.3881 16.7866 9.17638 16.9913C8.96467 17.196 8.79555 17.4403 8.67868 17.7101C8.56181 17.9798 8.49948 18.2699 8.49526 18.5637Z" fill="#263238"/>
<path d="M51.2525 23.8152C54.1513 23.6478 56.3649 21.1732 56.1967 18.288C56.0286 15.4027 53.5424 13.1995 50.6436 13.3669C47.7448 13.5342 45.5312 16.0089 45.6994 18.8941C45.8676 21.7793 48.3538 23.9825 51.2525 23.8152Z" fill="#263238"/>
<path d="M45.6898 18.5071C45.6898 18.512 45.6898 18.5169 45.6898 18.5208C45.6798 19.208 45.8059 19.8904 46.0609 20.5291C46.3158 21.1678 46.6947 21.7503 47.1758 22.2432C47.657 22.7362 48.2309 23.13 48.865 23.4022C49.499 23.6743 50.1807 23.8195 50.8711 23.8295C51.5616 23.8395 52.2472 23.714 52.8889 23.4602C53.5306 23.2064 54.1158 22.8293 54.6111 22.3504C55.1063 21.8715 55.502 21.3002 55.7754 20.6692C56.0489 20.0381 56.1948 19.3596 56.2048 18.6724C56.2048 18.6675 56.2048 18.6626 56.2048 18.6587L45.6898 18.5071Z" fill="#263238"/>
<path d="M47.2553 18.5432C47.2444 19.2699 47.4504 19.9833 47.847 20.5935C48.2437 21.2036 48.8132 21.6829 49.4836 21.9708C50.1539 22.2587 50.895 22.3423 51.6131 22.2109C52.3312 22.0796 52.994 21.7392 53.5177 21.2328C54.0414 20.7265 54.4025 20.0769 54.5553 19.3663C54.708 18.6557 54.6456 17.916 54.3759 17.2406C54.1063 16.5653 53.6414 15.9848 53.0402 15.5725C52.439 15.1601 51.7284 14.9345 50.9984 14.9242C50.0199 14.9103 49.076 15.2838 48.3741 15.9624C47.6722 16.6411 47.2697 17.5694 47.2553 18.5432Z" fill="#FAFAFA"/>
<path d="M50.9984 14.9231C50.0199 14.909 49.0758 15.2824 48.3738 15.9611C47.6719 16.6398 47.2695 17.5682 47.2553 18.5421L54.6364 18.6488C54.6503 17.6745 54.2748 16.7347 53.5926 16.036C52.9103 15.3374 51.9772 14.937 50.9984 14.9231Z" fill="#E0E0E0"/>
<path d="M48.6949 18.5637C48.6884 19.0063 48.8138 19.4409 49.0555 19.8126C49.2971 20.1842 49.6441 20.4762 50.0525 20.6516C50.4608 20.8269 50.9123 20.8778 51.3497 20.7977C51.7872 20.7177 52.1909 20.5103 52.5099 20.2018C52.8289 19.8934 53.0488 19.4976 53.1418 19.0648C53.2349 18.6319 53.1968 18.1812 53.0325 17.7699C52.8681 17.3585 52.5849 17.0049 52.2187 16.7538C51.8524 16.5026 51.4195 16.3652 50.9748 16.359C50.6797 16.3547 50.3866 16.4084 50.1122 16.5169C49.8379 16.6254 49.5878 16.7866 49.3761 16.9913C49.1643 17.196 48.9952 17.4403 48.8784 17.7101C48.7615 17.9798 48.6992 18.2699 48.6949 18.5637Z" fill="#263238"/>
<path d="M17.6344 6.20739C17.6344 6.20739 9.89266 6.77568 7.02119 7.41634C4.99877 7.86726 1.09938 8.64682 1.14655 11.0882L1.45611 12.839C1.45611 12.839 0.0105398 13.4963 0.0105398 15.1748C0.0105398 16.8532 -0.342252 19.455 3.03434 19.5597C3.59055 19.5763 4.64696 19.5597 4.64696 19.5597C4.64696 19.5597 3.99936 12.4018 10.6051 12.1925C17.3259 11.9793 16.8797 19.4941 16.8797 19.4941H44.9292C44.9292 19.4941 43.7775 12.1729 51.0122 12.1583C58.2469 12.1436 57.1462 19.5421 57.1462 19.5421C57.1462 19.5421 59.8074 19.7709 61.0456 17.5447C62.2838 15.3186 61.9625 13.7301 61.9625 13.7301L61.9212 12.3226C61.9134 12.0916 61.8177 11.8722 61.6535 11.7088C61.4893 11.5453 61.2688 11.4501 61.0368 11.4423C61.0368 11.4423 61.5203 7.89954 60.7783 7.28626C60.0364 6.67298 55.9709 2.97276 55.9709 2.97276L56.1674 2.85245C56.2403 2.80661 56.2986 2.74115 56.3356 2.66367C56.3726 2.58618 56.3868 2.49985 56.3765 2.41467C56.3662 2.32949 56.3319 2.24895 56.2775 2.1824C56.2231 2.11585 56.1509 2.06601 56.0692 2.03866C54.5253 1.51048 51.473 0.46487 50.7557 0.21545C50.6482 0.177439 50.5362 0.153758 50.4225 0.145025C49.9941 0.112748 48.7814 0.0364553 46.5556 0.0129805C43.8443 -0.016363 33.0797 0.0129805 33.0797 0.0129805C33.0797 0.0129805 29.3749 0.316196 27.3112 1.21998C25.1473 2.17071 17.6344 6.20739 17.6344 6.20739Z" fill="#FFC120"/>
<g opacity="0.4">
<path d="M1.974 14.979C1.69294 14.9222 1.26251 14.9173 1.04828 15.1061C0.889085 15.247 0.846828 15.4749 0.823243 15.6852C0.778109 15.9732 0.784763 16.267 0.842897 16.5528C0.872543 16.6955 0.931489 16.8306 1.01604 16.9496C1.10059 17.0686 1.20892 17.1689 1.33425 17.2443C1.59172 17.3832 1.94353 17.3607 2.14302 17.1465C2.32581 16.9508 2.34644 16.6574 2.33956 16.3963C2.33268 16.0187 2.36315 15.6989 2.29338 15.3282C2.27799 15.2495 2.24433 15.1754 2.1951 15.112C2.17062 15.074 2.13767 15.0422 2.09881 15.0189C2.05995 14.9957 2.01623 14.9817 1.97105 14.978" fill="black"/>
</g>
<path d="M1.45807 12.839C2.27961 12.839 3.07659 12.794 3.89715 12.7412C3.98654 12.7451 4.07459 12.7185 4.14676 12.6659C4.17977 12.625 4.20432 12.578 4.21899 12.5277C4.23367 12.4773 4.23817 12.4245 4.23225 12.3724C4.23225 11.9342 4.21457 11.4354 3.88044 11.1498C3.67604 10.9757 3.39597 10.9209 3.12769 10.8964C2.46147 10.8248 1.78756 10.8914 1.14851 11.0921L1.45807 12.839Z" fill="#FAFAFA"/>
<path d="M18.5258 19.27C18.5258 19.27 18.5258 19.2466 18.5199 19.1996C18.514 19.1527 18.512 19.0832 18.5061 18.9942C18.4963 18.8123 18.4815 18.5472 18.4629 18.2049C18.4442 17.8625 18.4206 17.4429 18.3715 16.9578C18.3207 16.4085 18.2238 15.8643 18.0816 15.3312C17.9022 14.6871 17.6361 14.0702 17.2905 13.4972C16.8991 12.8355 16.3789 12.2582 15.7604 11.7992C14.4348 10.8602 12.6433 10.332 10.7692 10.3066C8.89522 10.2812 7.10276 10.871 5.80951 11.8598C5.18961 12.3163 4.64659 12.868 4.20082 13.4943C3.81159 14.038 3.49512 14.6298 3.25938 15.2549C3.06492 15.7715 2.93136 16.3088 2.86138 16.8561C2.80658 17.2687 2.79046 17.6856 2.81323 18.1012C2.82936 18.3638 2.86218 18.6252 2.9115 18.8837C2.92723 18.9707 2.94 19.0382 2.94786 19.0852C2.95573 19.1321 2.95867 19.1546 2.95867 19.1546C2.95867 19.1546 2.95278 19.1321 2.94295 19.0871L2.90069 18.8915C2.84721 18.6334 2.81175 18.372 2.79456 18.109C2.76784 17.692 2.781 17.2735 2.83387 16.859C2.9016 16.3089 3.03352 15.7686 3.22695 15.249C3.46187 14.619 3.77836 14.0222 4.16839 13.4737C4.61519 12.8424 5.16061 12.2863 5.78396 11.8266C7.0831 10.8328 8.8795 10.2371 10.7683 10.2616C12.657 10.286 14.4515 10.8191 15.7879 11.7669C16.4101 12.2305 16.933 12.8131 17.3259 13.4806C17.6712 14.058 17.9356 14.6796 18.112 15.3282C18.2534 15.8636 18.3484 16.4101 18.3961 16.9617C18.4422 17.4507 18.4629 17.8674 18.4786 18.2098C18.4943 18.5521 18.5051 18.8182 18.513 19.0001C18.513 19.0891 18.5189 19.1576 18.5209 19.2055C18.5228 19.2534 18.5258 19.27 18.5258 19.27Z" fill="white"/>
<path d="M18.8206 19.3912V19.3325L18.8147 19.1593C18.8098 19.0048 18.8029 18.7789 18.7931 18.4835C18.7764 17.8897 18.7518 17.0222 18.7203 15.9179C18.6889 14.8136 18.6525 13.4726 18.6103 11.9369C18.5995 11.5525 18.5896 11.1544 18.5779 10.7485C18.571 10.5411 18.5802 10.3334 18.6054 10.1274L18.6496 9.81246L18.7145 9.49653C18.8162 9.06492 18.9628 8.64501 19.1518 8.24356C19.3464 7.82274 19.5869 7.42453 19.8691 7.05613L24.7267 4.01027L26.0386 3.18865C26.4808 2.8962 26.945 2.63818 27.4271 2.41692C27.9202 2.18582 28.4261 1.98301 28.9425 1.80951C29.2 1.71952 29.4643 1.64616 29.7287 1.56791C29.993 1.48966 30.2623 1.42511 30.5355 1.37229C31.5656 1.15295 32.6127 1.02205 33.6654 0.981044C34.6754 0.932869 35.6873 0.936134 36.697 0.990826H36.7255L36.7187 1.01919L35.4136 6.83018C35.1725 7.22423 34.9749 7.643 34.824 8.07924C34.6755 8.49299 34.6088 8.9314 34.6275 9.37035C34.6609 9.79975 34.6727 10.2203 34.6835 10.6282C34.6943 11.0361 34.6992 11.4312 34.7071 11.8156C34.7297 13.3513 34.7356 14.6903 34.7395 15.7936C34.7434 16.897 34.7395 17.7646 34.7395 18.3573C34.7395 18.6507 34.7395 18.8786 34.7395 19.0332C34.7395 19.1085 34.7395 19.1662 34.7395 19.2063C34.7395 19.2464 34.7395 19.265 34.7395 19.265C34.7395 19.265 34.7395 19.2444 34.7395 19.2063C34.7395 19.1681 34.7395 19.1085 34.7395 19.0332C34.7395 18.8786 34.7395 18.6527 34.7395 18.3573C34.7395 17.7646 34.7306 16.897 34.7238 15.7946C34.7169 14.6923 34.7071 13.3493 34.6805 11.8156C34.6727 11.4322 34.6641 11.0367 34.655 10.6292C34.6432 10.2213 34.6314 9.80268 34.597 9.37329C34.577 8.92883 34.6438 8.48474 34.7935 8.06554C34.9434 7.62578 35.1411 7.20366 35.3832 6.80671V6.81355C35.7831 5.02458 36.2204 3.07226 36.6833 1.00158L36.7059 1.03093C35.6984 0.976901 34.6888 0.97429 33.6811 1.0231C32.631 1.06356 31.5864 1.19447 30.559 1.41435C30.2868 1.46815 30.0215 1.54346 29.7552 1.60997C29.4889 1.67649 29.2285 1.76158 28.969 1.85059C28.4526 2.02437 27.9467 2.2275 27.4537 2.45898C26.974 2.67877 26.512 2.93515 26.072 3.22582L24.7591 4.04744L19.9016 7.08645V7.08156C19.6199 7.4475 19.38 7.84346 19.1862 8.26214C18.9974 8.66053 18.8511 9.07753 18.7498 9.50631C18.5287 10.3446 18.6398 11.1691 18.6417 11.9369L18.74 15.9179C18.7665 17.0212 18.7872 17.8898 18.8009 18.4825C18.8078 18.7759 18.8117 19.0048 18.8157 19.1593C18.8157 19.2343 18.8157 19.292 18.8157 19.3325C18.8206 19.3716 18.8206 19.3912 18.8206 19.3912Z" fill="#263238"/>
<path d="M36.6617 1.15249H36.7078L36.8425 1.14759L37.3643 1.13488L39.2992 1.09771L45.8225 0.986206H45.8352L45.8431 0.995986L46.757 2.11006C47.6827 3.24174 48.5652 4.31767 49.3671 5.29579L49.6619 5.65769C49.7574 5.77898 49.8394 5.91016 49.9066 6.04894C50.0284 6.30631 50.0945 6.58623 50.1008 6.87063C50.107 7.15503 50.0533 7.43757 49.943 7.7L49.6482 8.38468L48.746 10.4622L48.4984 11.0256L48.4325 11.1723C48.4178 11.2046 48.409 11.2212 48.409 11.2212C48.409 11.2212 48.4149 11.2036 48.4276 11.1704C48.4404 11.1371 48.463 11.0853 48.4886 11.0217C48.5446 10.8906 48.6242 10.6989 48.7274 10.4544L49.6118 8.37099C49.7808 7.92888 50.0786 7.46329 50.0579 6.89599C50.0536 6.60766 49.9865 6.3237 49.8614 6.06361C49.7955 5.92853 49.7151 5.80096 49.6216 5.68312L49.3268 5.32122L46.7138 2.13843L45.8008 1.02435L45.8205 1.03413L39.2963 1.13194L37.3613 1.15444H36.8395H36.7059L36.6617 1.15249Z" fill="#263238"/>
<path d="M33.3647 9.78723C33.3647 9.78723 33.3922 9.78723 33.4423 9.77549C33.516 9.76247 33.5863 9.7345 33.6487 9.69333C33.7477 9.62902 33.8218 9.53315 33.859 9.42141C33.8815 9.35201 33.8908 9.27904 33.8865 9.20623C33.8842 9.12504 33.8633 9.04544 33.8256 8.97344C33.7816 8.89149 33.7164 8.82277 33.6368 8.77443C33.5571 8.72609 33.4658 8.6999 33.3725 8.69859H32.7102H31.1919C31.0637 8.69879 30.9402 8.74697 30.846 8.83357C30.754 8.91689 30.6954 9.03048 30.6809 9.15341C30.666 9.27219 30.6879 9.39267 30.7438 9.49869C30.8008 9.59825 30.8892 9.6763 30.9954 9.72072C31.1004 9.75659 31.2119 9.77025 31.3226 9.76082H31.6439H32.2218L33.0581 9.76865L33.2851 9.77354C33.3117 9.77298 33.3384 9.77495 33.3647 9.77941C33.3382 9.78249 33.3117 9.78412 33.2851 9.7843H33.0581L32.2218 9.79212H31.6439H31.3226C31.2666 9.79212 31.2125 9.79212 31.1526 9.79212C31.0925 9.78846 31.0333 9.77491 30.9777 9.75202C30.8611 9.70438 30.7639 9.61934 30.7015 9.51042C30.6392 9.396 30.6147 9.26488 30.6318 9.13581C30.6472 8.99858 30.7128 8.87181 30.8161 8.77963C30.9194 8.68746 31.0532 8.63633 31.1919 8.63599H32.7102H33.3735C33.4738 8.63809 33.5716 8.6671 33.6567 8.71995C33.7418 8.7728 33.811 8.84754 33.857 8.93627C33.8964 9.01332 33.9175 9.09829 33.9189 9.18471C33.9221 9.26105 33.9111 9.33731 33.8865 9.40968C33.8449 9.52589 33.7649 9.62455 33.6595 9.68942C33.5945 9.73056 33.5208 9.75633 33.4443 9.76473C33.4187 9.77535 33.392 9.7829 33.3647 9.78723Z" fill="#263238"/>
<path d="M47.9088 9.78723C47.9088 9.78723 47.9363 9.78723 47.9864 9.77549C48.0601 9.76247 48.1304 9.7345 48.1928 9.69333C48.2918 9.62902 48.3659 9.53315 48.4031 9.42141C48.4256 9.35201 48.4349 9.27904 48.4306 9.20623C48.4283 9.12504 48.4074 9.04544 48.3697 8.97344C48.3257 8.89149 48.2605 8.82277 48.1809 8.77443C48.1012 8.72609 48.0099 8.6999 47.9166 8.69859H47.2543H45.736C45.6078 8.69879 45.4843 8.74697 45.3901 8.83357C45.2981 8.91689 45.2395 9.03048 45.225 9.15341C45.2101 9.27219 45.232 9.39267 45.2879 9.49869C45.3449 9.59825 45.4333 9.6763 45.5395 9.72072C45.6445 9.75659 45.756 9.77025 45.8667 9.76082H46.188H46.7659L47.6022 9.76865L47.8292 9.77354C47.8558 9.77298 47.8825 9.77495 47.9088 9.77941C47.8823 9.78249 47.8558 9.78412 47.8292 9.7843H47.6022L46.7659 9.79212H46.188H45.8667C45.8107 9.79212 45.7566 9.79212 45.6967 9.79212C45.6366 9.78846 45.5774 9.77491 45.5218 9.75202C45.4052 9.70438 45.308 9.61934 45.2456 9.51042C45.1833 9.396 45.1588 9.26488 45.1758 9.13581C45.1913 8.99858 45.2569 8.87181 45.3602 8.77963C45.4635 8.68746 45.5973 8.63633 45.736 8.63599H47.2543H47.9176C48.0179 8.63809 48.1157 8.6671 48.2008 8.71995C48.2859 8.7728 48.3551 8.84754 48.4011 8.93627C48.4405 9.01332 48.4616 9.09829 48.463 9.18471C48.4662 9.26105 48.4552 9.33731 48.4306 9.40968C48.389 9.52589 48.309 9.62455 48.2036 9.68942C48.1386 9.73056 48.0649 9.75633 47.9884 9.76473C47.9628 9.77535 47.9361 9.7829 47.9088 9.78723Z" fill="#263238"/>
<path d="M60.6535 7.4259H57.7447C57.5492 7.42585 57.3573 7.47894 57.1898 7.57943C57.0224 7.67992 56.8857 7.824 56.7944 7.99614C56.7194 8.13857 56.6777 8.29599 56.6722 8.45669C56.6668 8.61739 56.6978 8.77725 56.763 8.92438L57.9029 11.5037L60.8157 11.4753C60.8157 11.4753 61.4358 8.20546 60.6535 7.4259Z" fill="#FAFAFA"/>
<path d="M20.2553 7.06117L35.2642 6.78535L45.0324 6.60733L48.2537 4.75575C48.3149 4.72026 48.3679 4.67222 48.4091 4.61482C48.4502 4.55741 48.4787 4.49196 48.4925 4.42278C48.5064 4.35361 48.5053 4.28229 48.4894 4.21356C48.4734 4.14484 48.443 4.08026 48.4001 4.02412L46.3944 1.40179C46.2914 1.26677 46.1586 1.15707 46.0063 1.0811C45.854 1.00514 45.6862 0.964941 45.5159 0.963595L34.5901 0.875563C34.5901 0.875563 30.4765 0.636903 27.2345 2.44055C23.8255 4.34494 20.2553 7.06117 20.2553 7.06117Z" fill="#263238"/>
<path d="M27.1333 1.14661C27.1333 1.14661 27.8861 1.48797 27.3967 1.8039C26.9073 2.11983 19.3031 6.89011 19.3031 6.89011L17.5548 6.10272C20.6514 4.38809 23.7783 2.7204 27.1333 1.14661Z" fill="#455A64"/>
<path d="M19.5488 7.01129L19.5016 7.02303L19.363 7.05335L18.8294 7.1629C18.3656 7.25484 17.6934 7.38395 16.864 7.52676C15.1934 7.81237 12.8821 8.14493 10.3103 8.36598C9.66664 8.42174 9.03279 8.46379 8.43137 8.50683C7.82996 8.54987 7.23836 8.5841 6.68215 8.63399C5.56874 8.7318 4.57227 8.89221 3.76252 9.13185C3.1189 9.30998 2.49948 9.56552 1.91798 9.89282C1.70866 10.0024 1.55929 10.11 1.45414 10.1745L1.33425 10.2498L1.29199 10.2743C1.3046 10.2642 1.31772 10.2547 1.3313 10.2459L1.44824 10.1657C1.55241 10.0982 1.69982 9.9877 1.90815 9.87228C2.48614 9.53603 3.10416 9.27316 3.74778 9.08979C4.5595 8.84428 5.55891 8.67898 6.67331 8.58019C7.2305 8.52737 7.8162 8.4902 8.42351 8.4501C9.03083 8.41 9.65878 8.36305 10.3015 8.3073C12.8722 8.08624 15.1865 7.75955 16.8542 7.48274C17.6885 7.34483 18.3607 7.22159 18.8255 7.13551L19.3611 7.0377L19.5006 7.01227L19.5488 7.01129Z" fill="#263238"/>
<path d="M61.8161 13.7006C61.8161 13.7153 60.8157 13.726 59.5824 13.726C58.3491 13.726 57.3477 13.7153 57.3477 13.7006C57.3477 13.6859 58.3481 13.6752 59.5824 13.6752C60.8166 13.6752 61.8161 13.6869 61.8161 13.7006Z" fill="#263238"/>
<path d="M43.5151 16.2419C43.5151 16.2565 37.8684 16.2673 30.904 16.2673C23.9395 16.2673 18.2919 16.2565 18.2919 16.2419C18.2919 16.2272 23.9375 16.2164 30.904 16.2164C37.8704 16.2164 43.5151 16.2282 43.5151 16.2419Z" fill="#263238"/>
<path d="M3.98166 13.7846C3.98166 13.7993 3.18272 13.8101 2.19805 13.8101C1.21337 13.8101 0.414429 13.7993 0.414429 13.7846C0.414429 13.77 1.21337 13.7592 2.19805 13.7592C3.18272 13.7592 3.98166 13.771 3.98166 13.7846Z" fill="#263238"/>
<path d="M55.8952 2.87085C55.8952 2.87085 55.225 3.61715 55.4884 4.1649C55.7518 4.71264 58.4748 6.63171 58.4748 6.63171L60.4511 7.00046L55.8952 2.87085Z" fill="#455A64"/>
<path d="M37.1058 1.53375L36.6617 6.31088L44.6137 6.08493L47.8183 4.23042L45.7438 1.53375H37.1058Z" fill="#455A64"/>
<path d="M22.1382 6.55563C22.1382 6.55563 26.9358 3.10679 28.8285 2.42113C30.6553 1.75992 31.6076 1.59364 33.3234 1.54082C34.9635 1.49388 35.9629 1.54082 35.9629 1.54082L34.6953 6.39718L22.1382 6.55563Z" fill="#455A64"/>
<path d="M21.4365 6.56726C21.4366 6.41876 21.4763 6.27295 21.5516 6.14475C21.6269 6.01654 21.735 5.91054 21.865 5.83759L22.9676 5.22137C23.2817 5.0454 23.6361 4.95309 23.9965 4.95337C24.2184 4.95366 24.439 4.98865 24.65 5.05705C24.8797 5.13616 25.0798 5.28313 25.2234 5.47834C25.367 5.67356 25.4474 5.90773 25.4539 6.14961C25.4601 6.31207 25.4333 6.4741 25.3751 6.62601C25.3169 6.77792 25.2285 6.91656 25.1151 7.03365C25.0018 7.15074 24.8659 7.24385 24.7156 7.30741C24.5652 7.37097 24.4035 7.40367 24.2402 7.40355H22.2748C22.0523 7.40303 21.8391 7.3147 21.6819 7.15792C21.5248 7.00114 21.4365 6.78872 21.4365 6.56726Z" fill="#FFC120"/>
<path d="M21.4365 6.56739C21.4365 6.56739 21.4365 6.60456 21.4493 6.67303C21.4642 6.77374 21.4975 6.87089 21.5476 6.95962C21.627 7.09936 21.7441 7.21421 21.8856 7.2912C21.9739 7.33718 22.0698 7.367 22.1687 7.37923C22.2815 7.38753 22.3946 7.38982 22.5077 7.38608L24.1891 7.38021C24.3485 7.38444 24.5072 7.35855 24.6569 7.30391C24.8148 7.24511 24.9585 7.1537 25.0784 7.0357C25.1983 6.91769 25.2918 6.77576 25.3526 6.61923C25.4145 6.4541 25.4397 6.27756 25.4263 6.10181C25.4132 5.9286 25.3619 5.76039 25.2761 5.60911C25.1904 5.45782 25.0722 5.32717 24.9301 5.22639C24.7928 5.13198 24.6382 5.0655 24.4751 5.03077C24.027 4.92529 23.5564 4.97034 23.1366 5.1589C23.0099 5.21563 22.8939 5.28704 22.7789 5.34866L22.4507 5.53059L21.8856 5.84163C21.7435 5.91779 21.6262 6.03285 21.5476 6.17321C21.498 6.26218 21.4647 6.35922 21.4493 6.4598C21.4395 6.52827 21.4405 6.56544 21.4375 6.56544C21.4338 6.52967 21.4338 6.49361 21.4375 6.45784C21.4486 6.35519 21.4793 6.25558 21.5279 6.16441C21.6052 6.01832 21.7237 5.89794 21.8689 5.81815L22.4301 5.50027L22.7563 5.3154C22.8703 5.2528 22.9863 5.18042 23.116 5.11978C23.5436 4.92384 24.0247 4.87565 24.4829 4.98284C24.652 5.01628 24.8126 5.08277 24.9556 5.17847C25.1042 5.28324 25.2278 5.41935 25.3174 5.57709C25.4071 5.73483 25.4608 5.91032 25.4745 6.09105C25.4889 6.27444 25.4627 6.45873 25.3978 6.63097C25.3344 6.79449 25.2368 6.94273 25.1114 7.06583C24.986 7.18893 24.8358 7.28409 24.6706 7.345C24.5154 7.40065 24.3511 7.42685 24.1862 7.42227L22.5048 7.41738C22.3903 7.41982 22.2758 7.41622 22.1618 7.40662C22.0583 7.39232 21.9584 7.35916 21.867 7.3088C21.7222 7.22818 21.6035 7.10805 21.525 6.96255C21.477 6.87118 21.4466 6.77164 21.4356 6.66912C21.4332 6.63524 21.4335 6.60122 21.4365 6.56739Z" fill="#263238"/>
<path d="M58.3982 19.314C58.3982 19.314 58.3982 19.2915 58.3982 19.2465C58.3982 19.2015 58.4061 19.134 58.412 19.0509C58.4179 18.9678 58.4277 18.8553 58.4336 18.7281C58.4395 18.601 58.4434 18.4523 58.4483 18.287C58.4532 18.1217 58.4483 17.9359 58.4483 17.7344C58.4483 17.5329 58.4336 17.3128 58.4061 17.078C58.3614 16.546 58.2663 16.0194 58.1221 15.5052C58.0371 15.2053 57.9323 14.9112 57.8086 14.6249C57.6771 14.3156 57.5186 14.0185 57.3349 13.7368C56.9254 13.1159 56.4044 12.5754 55.798 12.1425C55.1305 11.6601 54.3855 11.2943 53.5947 11.0607C52.7751 10.8113 51.8828 10.7203 50.9748 10.7134C50.0891 10.7054 49.2075 10.833 48.3608 11.092C47.96 11.218 47.5707 11.378 47.1973 11.5703C46.8413 11.7586 46.5032 11.9785 46.1871 12.2276C45.5994 12.6857 45.0759 13.2199 44.6304 13.816C44.4346 14.0896 44.2617 14.3788 44.1135 14.6807C43.9784 14.9605 43.859 15.2475 43.7558 15.5404C43.4418 16.4233 43.2507 17.3447 43.1878 18.2792C43.1721 18.6108 43.1741 18.866 43.1829 19.0441C43.1878 19.1301 43.1918 19.1957 43.1937 19.2397C43.1957 19.2837 43.1937 19.3072 43.1937 19.3072C43.1937 19.3072 43.1937 19.2847 43.1859 19.2397C43.178 19.1947 43.176 19.1272 43.1692 19.0441C43.1562 18.7889 43.1562 18.5333 43.1692 18.2782C43.2235 17.3385 43.4097 16.4111 43.7224 15.5228C43.8257 15.2286 43.9444 14.94 44.0782 14.6582C44.2276 14.3541 44.4011 14.0624 44.597 13.7857C45.0439 13.1857 45.569 12.6476 46.1586 12.1855C46.4766 11.9346 46.8167 11.7126 47.1747 11.5223C47.5506 11.3286 47.9425 11.1673 48.3461 11.0401C49.1975 10.7781 50.0846 10.6491 50.9758 10.6577C51.8878 10.6645 52.784 10.7555 53.6104 11.0079C54.4064 11.2437 55.1561 11.6128 55.8274 12.0994C56.1383 12.3272 56.429 12.5811 56.6961 12.8585C56.9499 13.1186 57.1762 13.4041 57.3713 13.7104C57.5556 13.9946 57.7144 14.2944 57.8459 14.6063C57.9694 14.8925 58.0735 15.1866 58.1574 15.4866C58.3008 16.0034 58.394 16.5328 58.4355 17.0673C58.4621 17.302 58.4621 17.5221 58.4729 17.7246C58.4837 17.9271 58.4729 18.1158 58.4729 18.2782C58.4729 18.4406 58.4581 18.5922 58.4522 18.7203C58.4463 18.8484 58.4336 18.9551 58.4257 19.0431C58.4179 19.1311 58.412 19.1947 58.408 19.2387C58.4041 19.2827 58.3982 19.314 58.3982 19.314Z" fill="white"/>
<path d="M34.4624 7.0611H34.3955L34.139 7.06696L33.1966 7.08359C32.4006 7.09827 31.302 7.12761 30.0873 7.16087C28.8727 7.19412 27.7731 7.21662 26.9771 7.22249C26.5791 7.22249 26.2567 7.22249 26.0337 7.22249H25.7772H25.7113C25.7035 7.22397 25.6955 7.22397 25.6877 7.22249C25.6956 7.22123 25.7035 7.22123 25.7113 7.22249H25.7772L26.0337 7.21662L26.9761 7.19999C27.7721 7.18532 28.8717 7.15597 30.0863 7.1237C31.301 7.09142 32.4006 7.06696 33.1966 7.0611C33.5897 7.0611 33.9169 7.0611 34.139 7.0611H34.3955H34.4624Z" fill="white"/>
<path d="M33.1819 8.53129C32.8957 8.55706 32.6082 8.56556 32.321 8.55672C32.0338 8.56556 31.7463 8.55706 31.4602 8.53129C31.7464 8.5061 32.0338 8.49761 32.321 8.50586C32.6082 8.49761 32.8957 8.5061 33.1819 8.53129Z" fill="white"/>
<path d="M33.4983 3.2974C33.5032 3.31011 32.435 3.7532 31.1113 4.28627C29.7876 4.81935 28.7106 5.24189 28.7047 5.2282C28.6988 5.21451 29.768 4.7724 31.0917 4.23932C32.4154 3.70625 33.4924 3.28468 33.4983 3.2974Z" fill="white"/>
<path d="M31.3324 3.63287C31.3383 3.64657 30.3202 4.09259 29.0594 4.62958C27.7986 5.16656 26.7727 5.59204 26.7668 5.57933C26.7609 5.56661 27.779 5.12059 29.0398 4.58263C30.3006 4.04466 31.3265 3.6182 31.3324 3.63287Z" fill="white"/>
<path d="M45.0668 3.11269C45.0727 3.1254 44.0035 3.56849 42.6798 4.10157C41.3561 4.63464 40.279 5.05621 40.2731 5.04349C40.2672 5.03078 41.3364 4.58769 42.6611 4.05462C43.9858 3.52154 45.0589 3.099 45.0668 3.11269Z" fill="white"/>
<path d="M42.8969 3.446C42.9028 3.45969 41.8848 3.90571 40.6249 4.4427C39.3651 4.97969 38.3372 5.40517 38.3313 5.39245C38.3254 5.37974 39.3435 4.93371 40.6043 4.39575C41.8651 3.85779 42.8969 3.43719 42.8969 3.446Z" fill="white"/>
<path d="M45.2761 7.05636C45.2761 7.07006 43.1505 7.09451 40.5286 7.11016C37.9067 7.12581 35.7811 7.12679 35.7811 7.11016C35.7811 7.09353 37.9058 7.07201 40.5286 7.05734C43.1515 7.04267 45.2761 7.0456 45.2761 7.05636Z" fill="white"/>
<path d="M47.6297 8.45026C47.6297 8.46395 47.0341 8.48058 46.2981 8.48743C45.562 8.49427 44.9665 8.48743 44.9665 8.47471C44.9665 8.46199 45.562 8.44341 46.2981 8.43656C47.0341 8.42972 47.6297 8.43559 47.6297 8.45026Z" fill="white"/>
<path d="M6.92979 7.72626C6.91104 7.73257 6.89156 7.73651 6.87181 7.73799L6.70574 7.75951C6.63302 7.76734 6.54457 7.7781 6.44237 7.7957C6.34017 7.81331 6.22323 7.82603 6.09547 7.85146C5.83899 7.89645 5.53533 7.96296 5.20317 8.04708C4.84336 8.14589 4.48881 8.26276 4.14087 8.39724C3.77137 8.54298 3.4284 8.70242 3.1218 8.85989C2.81519 9.01737 2.54986 9.17583 2.33563 9.31765C2.22458 9.38514 2.12828 9.45361 2.04082 9.51328C1.95336 9.57294 1.88162 9.62185 1.82266 9.66489L1.68606 9.7627C1.67041 9.77472 1.65363 9.78521 1.63594 9.794C1.64896 9.77951 1.66345 9.7664 1.67918 9.75487L1.81086 9.65021C1.86786 9.60522 1.93862 9.5524 2.02411 9.49078C2.10961 9.42916 2.20296 9.36069 2.31892 9.29516C2.53512 9.14942 2.80242 8.98998 3.10509 8.82664C3.76772 8.47405 4.46958 8.19994 5.1963 8.00991C5.53042 7.92384 5.83604 7.86026 6.09449 7.82016C6.22323 7.79668 6.34017 7.78494 6.44335 7.77125C6.54654 7.75756 6.6399 7.74875 6.7077 7.74386L6.87574 7.73115C6.89362 7.72825 6.91168 7.72661 6.92979 7.72626Z" fill="white"/>
<path d="M24.479 5.41891C24.479 5.41891 24.4505 5.38077 24.3807 5.32795C24.2865 5.25612 24.1744 5.21115 24.0564 5.19786C23.8796 5.18317 23.7015 5.20209 23.5317 5.25361C22.9333 5.4036 22.3776 5.68838 21.9073 6.08599C21.6734 6.28161 21.5496 6.4254 21.5427 6.41855C21.5665 6.3812 21.5941 6.34645 21.6252 6.31487C21.7065 6.22502 21.7924 6.13947 21.8827 6.0586C22.1829 5.79246 22.5239 5.57584 22.8929 5.41696C23.0955 5.3287 23.3056 5.25897 23.5209 5.20862C23.6962 5.15785 23.8798 5.1419 24.0614 5.16167C24.1847 5.17849 24.3002 5.23123 24.3935 5.31328C24.4183 5.33541 24.4404 5.36036 24.4594 5.38761C24.4751 5.40718 24.481 5.41794 24.479 5.41891Z" fill="white"/>
<path d="M56.1183 2.83582C55.9813 2.86877 55.8405 2.88325 55.6997 2.87886C55.5344 2.87393 55.3699 2.85363 55.2083 2.81821C54.9951 2.76831 54.7859 2.70293 54.5823 2.62259C54.3553 2.53749 54.1136 2.42697 53.8522 2.3184L53.4444 2.15505C53.3038 2.0993 53.1554 2.05137 53.0061 1.9966C52.3501 1.77551 51.6813 1.59422 51.0033 1.45374C49.7707 1.19836 48.5191 1.04395 47.2611 0.992071C47.0194 0.979355 46.8012 0.979356 46.6086 0.974465H46.1173L45.8067 0.981311H45.6977C45.7068 0.979592 45.7161 0.979592 45.7252 0.981311L45.8058 0.975443L46.1173 0.958815L46.6086 0.950012C46.8052 0.950012 47.0194 0.950012 47.2611 0.961749C48.5226 1.00273 49.778 1.15328 51.0131 1.41168C51.6926 1.5506 52.3625 1.73225 53.0188 1.95552C53.1682 2.01029 53.3137 2.0592 53.4581 2.11593L53.8659 2.28318C54.1273 2.39567 54.3681 2.50522 54.5931 2.59227C54.794 2.67285 55.0006 2.73824 55.2113 2.78789C55.3706 2.82588 55.5331 2.8488 55.6967 2.85636C55.8 2.8599 55.9035 2.8563 56.0063 2.8456L56.0859 2.83582H56.1183Z" fill="#263238"/>
</svg>
