<svg width="159" height="159" viewBox="0 0 159 159" fill="none" xmlns="http://www.w3.org/2000/svg">
<path d="M132.157 106.953L136.609 106.864L138.8 106.829C139.529 106.813 140.254 106.829 140.982 106.81L140.839 106.953L140.823 103.226L140.982 103.385L136.565 103.35C135.096 103.35 133.627 103.315 132.157 103.299L132.243 103.213C132.243 103.824 132.215 104.438 132.202 105.058L132.157 106.953ZM132.157 106.953L132.11 105.109C132.11 104.473 132.075 103.859 132.068 103.226V103.14H132.157C133.627 103.121 135.096 103.089 136.565 103.086L140.976 103.067H141.135V103.226L141.115 106.953V107.096H140.976C140.231 107.096 139.487 107.096 138.75 107.096L136.524 107.061L132.157 106.953Z" fill="#EBEBEB"/>
<path d="M137.077 111.65L141.529 111.564L143.72 111.526C144.448 111.526 145.173 111.526 145.902 111.526L145.758 111.666V107.942L145.917 108.098L141.507 108.079C140.038 108.079 138.568 108.044 137.099 108.028L137.185 107.942C137.185 108.549 137.157 109.163 137.144 109.786L137.077 111.65ZM137.077 111.65L137.029 109.805C137.029 109.185 136.994 108.556 136.988 107.926V107.84H137.077C138.546 107.824 140.015 107.789 141.485 107.789L145.895 107.77H146.054V107.932L146.038 111.656V111.799H145.898C145.154 111.799 144.41 111.799 143.672 111.78L141.446 111.745L137.077 111.65Z" fill="#EBEBEB"/>
<path d="M36.7861 62.4425L41.2381 62.3534L43.4291 62.3185C44.1573 62.3185 44.8823 62.3185 45.6106 62.3026L45.4675 62.4425L45.4516 58.7155L45.6106 58.8745L41.1999 58.8554C39.7307 58.8554 38.2616 58.8205 36.7924 58.8046L36.8783 58.7155C36.8783 59.3261 36.8497 59.9398 36.8369 60.5599L36.7861 62.4425ZM36.7861 62.4425L36.7415 60.5981C36.7256 59.978 36.7034 59.3483 36.697 58.7155V58.6297H36.7861C38.2552 58.6138 39.7244 58.5788 41.1935 58.5788L45.6042 58.5565H45.7632V58.7155V62.4425V62.5856H45.6233C44.8792 62.5856 44.135 62.5856 43.3973 62.5665L41.1713 62.5315L36.7861 62.4425Z" fill="#EBEBEB"/>
<path d="M41.7851 67.1426L46.2371 67.0535L48.4281 67.0185C49.1563 67.0026 49.8814 67.0185 50.6096 66.9995L50.4665 67.1426L50.4506 63.4156L50.6096 63.5746L46.1989 63.5555C44.7298 63.5555 43.2606 63.5205 41.7883 63.5015L41.8773 63.4156C41.8773 64.0262 41.8487 64.6399 41.836 65.26L41.7851 67.1426ZM41.7851 67.1426L41.7406 65.2982C41.7406 64.6622 41.7056 64.0484 41.6992 63.4156V63.3297H41.7851C43.2574 63.3138 44.7266 63.2789 46.1957 63.2757L50.6064 63.2566H50.7654V63.4156L50.7463 67.1426V67.2857H50.6064C49.8623 67.2857 49.1182 67.2857 48.3804 67.2666L46.1544 67.2316L41.7851 67.1426Z" fill="#EBEBEB"/>
<path d="M13.1047 111.65L17.5567 111.564L19.7477 111.526C20.4791 111.526 21.2041 111.526 21.9292 111.526L21.7892 111.666L21.7702 107.942L21.9292 108.098L17.5217 108.079C16.0493 108.079 14.5802 108.044 13.111 108.028L13.1969 107.942C13.1969 108.549 13.1714 109.163 13.1555 109.786L13.1047 111.65ZM13.1047 111.65L13.0601 109.805C13.0601 109.185 13.0252 108.556 13.0188 107.926V107.84H13.1047C14.5738 107.824 16.043 107.789 17.5153 107.789L21.9228 107.77H22.085V107.932V111.656V111.799H21.9419C21.2009 111.799 20.4568 111.799 19.7159 111.78L17.4899 111.745L13.1047 111.65Z" fill="#EBEBEB"/>
<path d="M18.0241 23.4843L22.4761 23.3953L24.6671 23.3603C25.3985 23.3603 26.1236 23.3603 26.8486 23.3603L26.7087 23.5002L26.6896 19.7733L26.8486 19.9323L22.4411 19.9132C20.972 19.9132 19.4996 19.8782 18.0305 19.8591L18.1163 19.7733C18.1163 20.3838 18.0909 20.9976 18.075 21.6177L18.0241 23.4843ZM18.0241 23.4843L17.9796 21.6399C17.9796 21.0039 17.9446 20.3902 17.9382 19.7574V19.6715H18.0241C19.4933 19.6715 20.9656 19.6206 22.4348 19.6206L26.8422 19.5984H27.0044V19.7574V23.4843V23.6274H26.8613C26.1204 23.6274 25.3763 23.6274 24.6353 23.6084L22.4093 23.5734L18.0241 23.4843Z" fill="#EBEBEB"/>
<path d="M13.1047 28.1844L17.5567 28.0954L19.7477 28.0604C20.4791 28.0604 21.2041 28.0604 21.9292 28.0413L21.7892 28.1844L21.7702 24.4575L21.9292 24.6165L17.5217 24.5974C16.0493 24.5974 14.5802 24.5592 13.111 24.5433L13.1969 24.4575C13.1969 25.068 13.1714 25.6818 13.1555 26.3019L13.1047 28.1844ZM13.1047 28.1844L13.0601 26.34C13.0601 25.704 13.0252 25.0903 13.0188 24.4575V24.3716H13.1047C14.5738 24.3525 16.043 24.3207 17.5153 24.3175L21.9228 24.2985H22.085V24.4575V28.1844V28.3275H21.9419C21.2009 28.3275 20.4568 28.3275 19.7159 28.3275L17.4899 28.2925L13.1047 28.1844Z" fill="#EBEBEB"/>
<path d="M137.077 23.4843L141.529 23.3953L143.72 23.3603C144.448 23.3603 145.173 23.3603 145.902 23.3603L145.758 23.5002V19.7733L145.917 19.9323L141.507 19.9132C140.038 19.9132 138.568 19.8782 137.099 19.8591L137.185 19.7733C137.185 20.3838 137.157 20.9976 137.144 21.6177L137.077 23.4843ZM137.077 23.4843L137.029 21.6399C137.029 21.0039 136.994 20.3902 136.988 19.7574V19.6715H137.077C138.546 19.6715 140.015 19.6206 141.485 19.6206L145.895 19.5984H146.054V19.7574L146.038 23.4843V23.6274H145.898C145.154 23.6274 144.41 23.6274 143.672 23.6084L141.446 23.5734L137.077 23.4843Z" fill="#EBEBEB"/>
<path d="M46.7873 62.4425L51.2393 62.3534L53.4239 62.328C54.1522 62.328 54.8772 62.328 55.6054 62.3121L55.4623 62.452V58.7251L55.6213 58.8841L51.1979 58.8554C49.7288 58.8554 48.2564 58.8205 46.7873 58.8046L46.8763 58.7155C46.8763 59.3261 46.8477 59.9398 46.8318 60.5599L46.7873 62.4425ZM46.7873 62.4425L46.7428 60.5981C46.7428 59.978 46.7078 59.3483 46.7014 58.7155V58.6297H46.7873C48.2564 58.6138 49.7288 58.5788 51.1979 58.5788L55.6086 58.5565H55.7676V58.7155L55.7517 62.4425V62.5856H55.6118C54.8677 62.5856 54.1235 62.5856 53.3858 62.5665L51.1598 62.5315L46.7873 62.4425Z" fill="#EBEBEB"/>
<path d="M141.856 25.103H120.363V51.1758H141.856V25.103Z" fill="#EBEBEB"/>
<path d="M139.402 27.4816H122.818V48.7939H139.402V27.4816Z" fill="white"/>
<path d="M123.463 27.4816H122.818V48.7939H123.463V27.4816Z" fill="#C7C7C7"/>
<path d="M142.502 25.103H141.856V51.1758H142.502V25.103Z" fill="#C7C7C7"/>
<path d="M131.477 44.059H135.388V32.4106H131.477V44.059Z" fill="#EBEBEB"/>
<path d="M137.255 36.287H126.51V30.245H137.255V36.287ZM126.828 35.969H136.937V30.563H126.828V35.969Z" fill="#EBEBEB"/>
<path d="M141.856 89.3549H120.363V115.428H141.856V89.3549Z" fill="#EBEBEB"/>
<path d="M139.402 91.7367H122.818V113.049H139.402V91.7367Z" fill="white"/>
<path d="M123.463 91.7367H122.818V113.049H123.463V91.7367Z" fill="#C7C7C7"/>
<path d="M142.502 89.3549H141.856V115.428H142.502V89.3549Z" fill="#C7C7C7"/>
<path d="M132.288 96.6656H128.376V108.314H132.288V96.6656Z" fill="#EBEBEB"/>
<path d="M137.255 100.542H126.51V94.516H137.255V100.542ZM126.828 100.224H136.937V94.834H126.828V100.224Z" fill="#EBEBEB"/>
<path d="M141.856 57.3481H120.363V83.421H141.856V57.3481Z" fill="#EBEBEB"/>
<path d="M139.402 59.7268H122.818V81.0392H139.402V59.7268Z" fill="white"/>
<path d="M123.463 59.7268H122.818V81.0392H123.463V59.7268Z" fill="#C7C7C7"/>
<path d="M142.502 57.3481H141.856V83.421H142.502V57.3481Z" fill="#C7C7C7"/>
<path d="M132.851 65.2346H129.502V73.703H132.851V65.2346Z" fill="#EBEBEB"/>
<path d="M136.54 76.3805H127.222V70.224H136.54V76.3805ZM127.54 76.0625H136.222V70.542H127.54V76.0625Z" fill="#DBDBDB"/>
<path d="M49.9448 80.5367C49.9538 81.0632 49.8587 81.5862 49.665 82.0759C49.424 82.5883 49.0189 83.0058 48.5138 83.262C48.3389 83.3669 48.1227 83.4878 47.8778 83.6213C47.6137 83.7601 47.3616 83.9207 47.1242 84.1015C46.8829 84.2843 46.6734 84.5056 46.5041 84.7566C46.3343 85.0127 46.2467 85.3144 46.2529 85.6216C46.2485 85.8416 46.2964 86.0596 46.3928 86.2576C46.4806 86.4391 46.6051 86.6005 46.7585 86.7314C46.9147 86.8611 47.0953 86.9584 47.2895 87.0176C47.4903 87.0803 47.6993 87.1124 47.9096 87.113C48.1493 87.1173 48.3873 87.0729 48.6092 86.9826C48.8129 86.9037 49.0045 86.7966 49.1785 86.6646C49.347 86.531 49.4996 86.3784 49.6332 86.2099C49.7565 86.0571 49.8702 85.8967 49.9735 85.7297L51.4935 86.7791C51.3461 87.1282 51.142 87.4506 50.8893 87.7331C50.6418 88.0107 50.3534 88.2487 50.0339 88.439C49.7025 88.6359 49.3449 88.7847 48.9718 88.8811C48.596 88.9795 48.209 89.0287 47.8206 89.0273C47.3769 89.0275 46.9356 88.9632 46.5104 88.8365C46.0865 88.7106 45.6912 88.5032 45.3466 88.226C44.9927 87.933 44.7072 87.5661 44.5102 87.1511C44.285 86.6611 44.1762 86.1256 44.1922 85.5866C44.1873 85.2534 44.2312 84.9212 44.3226 84.6008C44.4067 84.3232 44.5332 84.0604 44.6978 83.8217C44.862 83.5852 45.0566 83.3714 45.2766 83.1857C45.5139 82.9882 45.7646 82.8076 46.0271 82.6451C46.2603 82.5052 46.4924 82.3716 46.7235 82.2444C46.9485 82.1216 47.1615 81.9779 47.3595 81.8151C47.5469 81.6639 47.7062 81.4809 47.8301 81.2745C47.9594 81.0483 48.0232 80.7907 48.0146 80.5304L49.9448 80.5367ZM49.9099 76.4663V78.8641H47.9701V76.4536L49.9099 76.4663Z" fill="#EBEBEB"/>
<path d="M110.759 71.3942C110.752 70.8689 110.847 70.3473 111.039 69.8583C111.281 69.3448 111.688 68.9264 112.194 68.669C112.368 68.564 112.581 68.4464 112.83 68.3096C113.093 68.1719 113.344 68.0113 113.58 67.8294C113.822 67.6474 114.032 67.426 114.2 67.1744C114.371 66.9188 114.46 66.617 114.455 66.3094C114.457 66.0895 114.409 65.8721 114.315 65.6734C114.226 65.4935 114.101 65.3334 113.949 65.2028C113.792 65.072 113.61 64.9736 113.415 64.9134C113.214 64.8502 113.005 64.818 112.795 64.818C112.555 64.8152 112.317 64.8595 112.095 64.9484C111.893 65.0293 111.703 65.1362 111.529 65.2664C111.36 65.3988 111.208 65.5504 111.074 65.7179C110.951 65.8723 110.838 66.0337 110.734 66.2013L109.214 65.1519C109.361 64.8031 109.564 64.4808 109.815 64.1979C110.064 63.9201 110.354 63.6811 110.673 63.4887C110.997 63.2954 111.346 63.1487 111.71 63.0531C112.52 62.8396 113.373 62.855 114.175 63.0976C114.599 63.221 114.993 63.4286 115.335 63.7082C115.69 64.0015 115.976 64.3682 116.175 64.783C116.4 65.2721 116.508 65.8064 116.493 66.3444C116.498 66.6786 116.454 67.0118 116.363 67.3334C116.279 67.6106 116.151 67.8725 115.984 68.1093C115.823 68.347 115.629 68.5611 115.409 68.7453C115.171 68.943 114.921 69.1237 114.658 69.2859C114.426 69.4258 114.191 69.5625 113.958 69.6897C113.734 69.812 113.521 69.9547 113.322 70.1159C113.135 70.2689 112.974 70.4528 112.849 70.6596C112.722 70.8857 112.66 71.1418 112.667 71.4006L110.759 71.3942ZM110.794 75.4646V73.0542H112.734V75.4646H110.794Z" fill="#EBEBEB"/>
<path d="M79.4999 146.83C99.4195 146.83 115.567 144.539 115.567 141.714C115.567 138.888 99.4195 136.597 79.4999 136.597C59.5804 136.597 43.4324 138.888 43.4324 141.714C43.4324 144.539 59.5804 146.83 79.4999 146.83Z" fill="#EBEBEB"/>
<path d="M50.5811 52.8675C50.5804 53.5463 50.7811 54.21 51.1578 54.7746C51.5344 55.3393 52.0701 55.7796 52.697 56.0398C53.3239 56.3 54.0139 56.3684 54.6797 56.2363C55.3455 56.1043 55.9572 55.7778 56.4374 55.298C56.9176 54.8183 57.2447 54.2069 57.3773 53.5412C57.51 52.8756 57.4422 52.1855 57.1826 51.5583C56.923 50.9312 56.4832 50.3951 55.9189 50.0179C55.3546 49.6408 54.691 49.4395 54.0123 49.4395C53.1028 49.4395 52.2305 49.8005 51.5872 50.4433C50.9438 51.0861 50.5819 51.958 50.5811 52.8675Z" fill="white"/>
<path d="M50.5811 52.8675C50.5902 53.7742 50.9571 54.6406 51.6019 55.278C51.921 55.5879 52.2983 55.8318 52.7119 55.9955C53.1256 56.1592 53.5675 56.2396 54.0123 56.232C54.8925 56.2119 55.7291 55.845 56.3401 55.2112C56.9456 54.587 57.2843 53.7515 57.2843 52.8819C57.2843 52.0122 56.9456 51.1767 56.3401 50.5525C55.7222 49.9138 54.876 49.5467 53.9875 49.5318C53.0989 49.5169 52.2409 49.8554 51.6019 50.473C50.96 51.1059 50.5933 51.9662 50.5811 52.8675ZM50.5811 52.8675C50.5764 51.955 50.9318 51.0775 51.5701 50.4253C52.2187 49.7581 53.1053 49.3751 54.0357 49.3602C54.9661 49.3453 55.8644 49.6997 56.5341 50.3458C56.8712 50.6736 57.1392 51.0656 57.3222 51.4988C57.5052 51.9319 57.5995 52.3973 57.5995 52.8675C57.5995 53.3378 57.5052 53.8032 57.3222 54.2363C57.1392 54.6695 56.8712 55.0615 56.5341 55.3893C56.2037 55.7115 55.8129 55.9652 55.3841 56.1357C54.9553 56.3062 54.497 56.3902 54.0355 56.3828C53.5741 56.3754 53.1187 56.2768 52.6956 56.0927C52.2725 55.9085 51.8899 55.6424 51.5701 55.3098C50.9312 54.658 50.5758 53.7802 50.5811 52.8675Z" fill="#263238"/>
<path d="M24.6323 34.3981C24.6323 37.6271 25.5898 40.7836 27.3838 43.4684C29.1777 46.1533 31.7275 48.2458 34.7107 49.4815C37.6939 50.7172 40.9766 51.0405 44.1435 50.4106C47.3105 49.7806 50.2195 48.2257 52.5028 45.9424C54.786 43.6592 56.3409 40.7502 56.9709 37.5832C57.6008 34.4163 57.2775 31.1336 56.0418 28.1504C54.8061 25.1672 52.7136 22.6174 50.0287 20.8235C47.3439 19.0295 44.1874 18.072 40.9584 18.072C36.6285 18.072 32.4759 19.7921 29.4141 22.8538C26.3524 25.9156 24.6323 30.0682 24.6323 34.3981Z" fill="white"/>
<path d="M24.6323 34.3981C24.6359 36.5405 25.0615 38.6613 25.8848 40.6392C26.7082 42.6171 27.9132 44.4134 29.4309 45.9256C32.4858 48.9334 36.6056 50.6119 40.8926 50.5952C45.1796 50.5786 49.2863 48.8682 52.3177 45.8368C55.3491 42.8054 57.0595 38.6987 57.0761 34.4117C57.0928 30.1247 55.4143 26.0049 52.4064 22.9501C50.1376 20.6699 47.2432 19.1143 44.0898 18.4801C40.9363 17.8459 37.6655 18.1617 34.6916 19.3875C31.7177 20.6132 29.1744 22.6939 27.3837 25.366C25.593 28.0381 24.6355 31.1814 24.6323 34.3981ZM24.6323 34.3981C24.637 30.336 26.1526 26.4209 28.8842 23.4144C31.6159 20.408 35.3682 18.5252 39.4113 18.1324C43.4543 17.7396 47.4989 18.8648 50.7582 21.2892C54.0175 23.7136 56.2584 27.2637 57.0449 31.249C57.8314 35.2342 57.1073 39.3695 55.0134 42.8503C52.9196 46.3312 49.6057 48.9087 45.7166 50.0813C41.8274 51.254 37.6411 50.9379 33.9721 49.1947C30.3031 47.4515 27.4137 44.4057 25.8662 40.6499C25.0504 38.6666 24.6313 36.5426 24.6323 34.3981Z" fill="#263238"/>
<path d="M58.512 58.512C58.512 58.8894 58.6239 59.2583 58.8335 59.572C59.0432 59.8858 59.3412 60.1304 59.6898 60.2748C60.0384 60.4192 60.4221 60.457 60.7922 60.3833C61.1623 60.3097 61.5023 60.128 61.7691 59.8612C62.036 59.5943 62.2177 59.2544 62.2913 58.8842C62.3649 58.5141 62.3271 58.1305 62.1827 57.7818C62.0383 57.4332 61.7938 57.1352 61.48 56.9256C61.1662 56.7159 60.7973 56.604 60.42 56.604C59.9139 56.604 59.4286 56.805 59.0708 57.1628C58.713 57.5207 58.512 58.006 58.512 58.512Z" fill="white"/>
<path d="M58.512 58.5121C58.5117 58.7592 58.5615 59.0037 58.6583 59.2311C58.7551 59.4585 58.8969 59.6639 59.0751 59.835C59.2534 60.0061 59.4644 60.1394 59.6955 60.2268C59.9267 60.3143 60.1731 60.354 60.42 60.3437C60.8921 60.3241 61.3384 60.1226 61.6656 59.7816C61.9927 59.4405 62.1753 58.9862 62.1753 58.5137C62.1753 58.0411 61.9927 57.5868 61.6656 57.2457C61.3384 56.9047 60.8921 56.7032 60.42 56.6836C60.1733 56.6733 59.9272 56.7129 59.6963 56.8002C59.4654 56.8874 59.2545 57.0204 59.0763 57.1912C58.8981 57.362 58.7562 57.567 58.6593 57.794C58.5623 58.021 58.5122 58.2652 58.512 58.5121ZM58.512 58.5121C58.5127 58.0046 58.7072 57.5167 59.0557 57.1478C59.2303 56.9567 59.4411 56.8021 59.6758 56.693C59.9105 56.5838 60.1645 56.5222 60.4231 56.5118C60.9503 56.5118 61.4558 56.7212 61.8285 57.094C62.2012 57.4667 62.4106 57.9722 62.4106 58.4993C62.4106 59.0265 62.2012 59.532 61.8285 59.9047C61.4558 60.2774 60.9503 60.4868 60.4231 60.4868C59.9035 60.4682 59.4121 60.2454 59.0557 59.8667C58.71 59.5 58.5158 59.0161 58.512 58.5121Z" fill="#263238"/>
<path d="M33.5204 30.9224L35.2281 34.2582L36.9644 30.9224H38.4176L35.9022 35.4284V37.842H34.5635V35.403L32.0576 30.9192L33.5204 30.9224Z" fill="#FFC120"/>
<path d="M43.9859 36.6654V37.842H39.1777V30.9224H43.8841V32.118H40.5229V33.7844H43.4389V34.8783H40.5229V36.6813L43.9859 36.6654Z" fill="#FFC120"/>
<path d="M49.0166 32.7349C48.9403 32.6653 48.8572 32.6035 48.7685 32.5505C48.6293 32.4613 48.4824 32.3847 48.3297 32.3215C48.1488 32.2422 47.9616 32.1784 47.77 32.1307C47.5695 32.0791 47.3633 32.0524 47.1563 32.0512C46.8646 32.0301 46.5739 32.1025 46.3263 32.2579C46.2372 32.3243 46.1657 32.4114 46.118 32.5117C46.0703 32.6121 46.0479 32.7225 46.0528 32.8335C46.0486 32.96 46.0842 33.0845 46.1546 33.1897C46.2361 33.292 46.3379 33.3764 46.4535 33.4377C46.6104 33.5197 46.7756 33.5848 46.9464 33.6317C47.1435 33.6921 47.3725 33.7525 47.6333 33.8193C47.9455 33.9008 48.2533 33.9985 48.5555 34.1119C48.8093 34.2021 49.0467 34.3331 49.2582 34.4998C49.4457 34.6521 49.5968 34.8444 49.7003 35.0627C49.8123 35.3157 49.8656 35.5907 49.8561 35.8672C49.8656 36.1977 49.7935 36.5253 49.6462 36.8212C49.5111 37.0754 49.317 37.2936 49.0802 37.4572C48.8321 37.6247 48.5549 37.7445 48.2629 37.8102C47.9454 37.8875 47.6197 37.926 47.293 37.9247C46.77 37.924 46.2501 37.8447 45.7507 37.6894C45.2633 37.5438 44.8027 37.3204 44.3865 37.0279L44.9811 35.8672C45.0791 35.9541 45.1857 36.0308 45.2991 36.0962C45.4748 36.201 45.6563 36.2955 45.8429 36.3792C46.0663 36.4768 46.297 36.5566 46.533 36.6177C46.7888 36.6815 47.0516 36.7135 47.3153 36.7131C48.0562 36.7131 48.4251 36.4778 48.4251 36.004C48.4294 35.8657 48.3843 35.7304 48.2979 35.6224C48.1992 35.5064 48.0766 35.4132 47.9385 35.3489C47.7565 35.2614 47.5671 35.1901 47.3725 35.1358L46.6316 34.9196C46.3375 34.842 46.0495 34.7432 45.7698 34.6239C45.5473 34.5298 45.3412 34.401 45.1592 34.2423C45.0003 34.1026 44.8753 33.9286 44.7935 33.7335C44.7068 33.5151 44.6657 33.2814 44.6727 33.0466C44.6663 32.7243 44.7326 32.4048 44.8667 32.1117C44.9906 31.8444 45.1758 31.6102 45.4073 31.428C45.6481 31.2424 45.9207 31.1023 46.2118 31.0146C46.5312 30.917 46.8636 30.8687 47.1976 30.8715C47.6561 30.8663 48.1117 30.9439 48.5427 31.1004C48.9182 31.2387 49.2758 31.4213 49.608 31.6442L49.0166 32.7349Z" fill="#FFC120"/>
<path d="M105.77 52.8675C105.771 53.5464 105.57 54.2102 105.193 54.775C104.816 55.3397 104.28 55.78 103.653 56.0401C103.026 56.3002 102.336 56.3684 101.67 56.2361C101.004 56.1038 100.393 55.777 99.9124 55.2969C99.4324 54.8169 99.1055 54.2052 98.9732 53.5393C98.841 52.8734 98.9092 52.1832 99.1693 51.5561C99.4294 50.929 99.8696 50.3932 100.434 50.0164C100.999 49.6396 101.663 49.4388 102.342 49.4395C103.251 49.4403 104.122 49.8017 104.765 50.4444C105.408 51.0871 105.769 51.9586 105.77 52.8675Z" fill="white"/>
<path d="M105.77 52.8675C105.774 53.3197 105.689 53.7682 105.519 54.1873C105.349 54.6064 105.099 54.9878 104.781 55.3098C104.461 55.6419 104.079 55.9076 103.656 56.0915C103.233 56.2753 102.778 56.3738 102.317 56.3812C101.856 56.3886 101.398 56.3048 100.97 56.1345C100.541 55.9643 100.151 55.711 99.8204 55.3893C99.4808 55.0629 99.2107 54.6713 99.0262 54.2379C98.8417 53.8046 98.7466 53.3385 98.7466 52.8675C98.7466 52.3965 98.8417 51.9304 99.0262 51.4971C99.2107 51.0638 99.4808 50.6722 99.8204 50.3458C100.151 50.024 100.541 49.7708 100.97 49.6005C101.398 49.4303 101.856 49.3465 102.317 49.3538C102.778 49.3612 103.233 49.4597 103.656 49.6436C104.079 49.8275 104.461 50.0931 104.781 50.4253C105.099 50.7473 105.349 51.1288 105.519 51.5479C105.689 51.967 105.774 52.4154 105.77 52.8675ZM105.77 52.8675C105.766 52.4189 105.674 51.9754 105.499 51.5623C105.324 51.1493 105.069 50.7748 104.749 50.4603C104.11 49.8427 103.252 49.5041 102.364 49.519C101.475 49.534 100.629 49.9011 100.011 50.5398C99.4071 51.1647 99.0695 51.9999 99.0695 52.8691C99.0695 53.7383 99.4071 54.5735 100.011 55.1985C100.629 55.8371 101.475 56.2043 102.364 56.2192C103.252 56.2341 104.11 55.8955 104.749 55.278C105.395 54.6413 105.762 53.7745 105.77 52.8675Z" fill="#263238"/>
<path d="M131.722 34.3981C131.722 37.6271 130.765 40.7836 128.971 43.4684C127.177 46.1533 124.627 48.2458 121.644 49.4815C118.66 50.7172 115.378 51.0405 112.211 50.4106C109.044 49.7806 106.135 48.2257 103.852 45.9424C101.568 43.6592 100.013 40.7502 99.3835 37.5832C98.7536 34.4163 99.0769 31.1336 100.313 28.1504C101.548 25.1672 103.641 22.6174 106.326 20.8235C109.01 19.0295 112.167 18.072 115.396 18.072C119.726 18.0729 123.878 19.7932 126.939 22.8548C130.001 25.9163 131.721 30.0684 131.722 34.3981Z" fill="white"/>
<path d="M131.722 34.3981C131.73 38.1955 130.42 41.878 128.015 44.8171C125.611 47.7562 122.261 49.7696 118.537 50.5139C114.813 51.2581 110.946 50.687 107.597 48.8979C104.247 47.1089 101.622 44.2128 100.17 40.704C98.9204 37.6957 98.5932 34.3838 99.2302 31.1892C99.8673 27.9945 101.44 25.0614 103.748 22.7625C106.045 20.4718 108.97 18.9139 112.152 18.2856C115.335 17.6572 118.633 17.9868 121.628 19.2326C124.623 20.4784 127.182 22.5845 128.981 25.2845C130.779 27.9845 131.736 31.1572 131.732 34.4013L131.722 34.3981ZM131.722 34.3981C131.72 31.998 131.187 29.6282 130.16 27.4589C129.133 25.2896 127.638 23.3747 125.783 21.852C123.928 20.3293 121.759 19.2365 119.431 18.6522C117.103 18.0679 114.674 18.0066 112.32 18.4727C109.966 18.9389 107.744 19.9208 105.814 21.3481C103.885 22.7753 102.295 24.6123 101.16 26.727C100.025 28.8417 99.373 31.1817 99.2501 33.5786C99.1273 35.9755 99.5371 38.3699 100.45 40.5896C101.672 43.5628 103.749 46.1065 106.417 47.8984C109.086 49.6903 112.226 50.6497 115.441 50.6551C118.655 50.6606 121.799 49.7118 124.474 47.929C127.149 46.1461 129.234 43.6095 130.466 40.6404C131.288 38.6615 131.715 36.5409 131.722 34.3981Z" fill="#263238"/>
<path d="M97.8265 58.512C97.8265 58.8894 97.7146 59.2583 97.5049 59.572C97.2953 59.8858 96.9973 60.1304 96.6487 60.2748C96.3 60.4192 95.9164 60.457 95.5463 60.3833C95.1762 60.3097 94.8362 60.128 94.5693 59.8612C94.3025 59.5943 94.1208 59.2544 94.0472 58.8842C93.9735 58.5141 94.0113 58.1305 94.1557 57.7818C94.3001 57.4332 94.5447 57.1352 94.8585 56.9256C95.1722 56.7159 95.5411 56.604 95.9185 56.604C96.4245 56.604 96.9098 56.805 97.2677 57.1628C97.6255 57.5207 97.8265 58.006 97.8265 58.512Z" fill="white"/>
<path d="M97.8263 58.512C97.8268 59.0257 97.6283 59.5195 97.2726 59.89C96.9169 60.2606 96.4316 60.479 95.9183 60.4995C95.6479 60.5148 95.3771 60.4748 95.1227 60.3818C94.8683 60.2889 94.6355 60.1449 94.4386 59.9589C94.2417 59.7728 94.0849 59.5485 93.9777 59.2998C93.8705 59.051 93.8152 58.7829 93.8152 58.512C93.8152 58.2412 93.8705 57.9731 93.9777 57.7243C94.0849 57.4755 94.2417 57.2513 94.4386 57.0652C94.6355 56.8791 94.8683 56.7352 95.1227 56.6423C95.3771 56.5493 95.6479 56.5092 95.9183 56.5245C96.431 56.5466 96.9155 56.7656 97.2708 57.1357C97.6262 57.5059 97.8252 57.9989 97.8263 58.512ZM97.8263 58.512C97.827 58.265 97.7775 58.0203 97.6809 57.7929C97.5842 57.5655 97.4424 57.3601 97.264 57.1891C97.0856 57.0182 96.8743 56.8852 96.643 56.7983C96.4117 56.7114 96.1652 56.6723 95.9183 56.6835C95.4462 56.7032 94.9999 56.9047 94.6728 57.2457C94.3456 57.5868 94.163 58.0411 94.163 58.5136C94.163 58.9862 94.3456 59.4405 94.6728 59.7816C94.9999 60.1226 95.4462 60.324 95.9183 60.3437C96.1655 60.3549 96.4123 60.3158 96.6438 60.2287C96.8753 60.1416 97.0867 60.0083 97.2651 59.837C97.4436 59.6657 97.5853 59.4599 97.6818 59.2322C97.7783 59.0044 97.8275 58.7594 97.8263 58.512Z" fill="#263238"/>
<path d="M109.85 33.4218V37.8738H108.505V30.9351H109.548L113.157 35.4793V30.9446H114.502V37.8611H113.412L109.85 33.4218Z" fill="#263238"/>
<path d="M118.9 37.9088C118.424 37.9149 117.952 37.8138 117.52 37.6131C117.119 37.4199 116.758 37.151 116.458 36.8213C115.863 36.1539 115.532 35.2923 115.526 34.3981C115.525 33.9435 115.613 33.4931 115.784 33.072C115.953 32.6584 116.194 32.2782 116.496 31.9495C116.801 31.6205 117.168 31.3537 117.574 31.164C118.001 30.971 118.464 30.8734 118.932 30.8778C119.408 30.8746 119.877 30.9836 120.303 31.1958C120.704 31.3918 121.063 31.6652 121.358 32.0004C121.653 32.3323 121.884 32.7148 122.042 33.1293C122.201 33.5348 122.284 33.9659 122.287 34.4013C122.288 34.8545 122.202 35.3037 122.033 35.7242C121.869 36.1345 121.631 36.5108 121.33 36.834C121.027 37.1599 120.663 37.4225 120.258 37.6067C119.833 37.8052 119.37 37.9083 118.9 37.9088ZM116.894 34.4108C116.893 34.7056 116.939 34.9988 117.031 35.279C117.115 35.5483 117.248 35.7996 117.425 36.0199C117.597 36.2363 117.814 36.413 118.061 36.5382C118.328 36.668 118.622 36.7354 118.919 36.7354C119.217 36.7354 119.51 36.668 119.778 36.5382C120.025 36.4083 120.242 36.2273 120.414 36.0072C120.587 35.7828 120.719 35.5299 120.805 35.2599C120.891 34.9872 120.935 34.7031 120.936 34.4172C120.936 34.1222 120.888 33.8291 120.796 33.549C120.707 33.2805 120.571 33.0296 120.395 32.8081C120.222 32.5944 120.005 32.4199 119.759 32.2961C119.496 32.166 119.206 32.1005 118.913 32.1053C118.613 32.0996 118.315 32.1685 118.048 32.3057C117.8 32.433 117.583 32.6132 117.412 32.8335C117.241 33.0559 117.111 33.3067 117.027 33.5745C116.941 33.8405 116.896 34.1183 116.894 34.3981V34.4108Z" fill="#263238"/>
<path d="M36.9294 97.944C32.4583 103.986 27.7932 111.026 26.658 118.614C26.658 118.728 26.8297 118.767 26.8551 118.652C27.3712 116.582 28.0321 114.55 28.8331 112.572C31.7746 111.764 34.6588 111.1 36.2011 108.18C37.7911 105.182 37.5781 101.27 37.2792 98.0044C37.2569 97.8231 37.0184 97.8136 36.9294 97.944Z" fill="#FFC120"/>
<path d="M28.8776 112.508C30.8874 108.002 33.4663 103.474 36.7417 99.7693C36.764 99.7439 36.799 99.7693 36.7799 99.8043C34.6334 102.444 33.0021 105.318 31.4089 108.244C32.8908 106.743 34.5126 105.382 35.9149 103.792C35.9436 103.76 35.9849 103.792 35.9595 103.837C34.5666 105.509 33.0466 107.335 31.234 108.562C30.7443 109.459 30.2524 110.358 29.7585 111.259C29.8793 111.192 30.0065 111.131 30.1305 111.068C30.1528 111.068 30.1719 111.09 30.1496 111.103C30.0129 111.173 29.8761 111.246 29.733 111.306C29.4977 111.733 29.2624 112.159 29.0207 112.578C28.9666 112.687 28.8363 112.604 28.8776 112.508Z" fill="#263238"/>
<path d="M30.3723 110.937C31.574 110.264 32.7213 109.497 33.8035 108.645C33.8353 108.622 33.8766 108.664 33.848 108.686C32.7987 109.593 31.6485 110.376 30.42 111.02C30.409 111.026 30.396 111.028 30.3837 111.025C30.3715 111.022 30.3611 111.014 30.3548 111.003C30.3485 110.992 30.3467 110.979 30.35 110.966C30.3533 110.954 30.3613 110.944 30.3723 110.937Z" fill="#263238"/>
<path d="M26.1428 117.479C26.1428 117.571 26.3082 117.571 26.305 117.479C26.3272 114.976 26.305 112.464 26.3463 109.952C26.9823 108.661 28.3624 107.945 29.3164 106.908C30.0056 106.153 30.6043 105.319 31.1004 104.425C32.252 102.289 32.9564 99.9412 33.1706 97.5242C33.4345 94.8499 32.4201 86.0222 31.2912 86.3306C30.7061 86.4896 28.814 90.8621 28.3116 92.3059C27.4996 94.6909 26.9036 97.144 26.5308 99.6358C25.6181 105.512 25.6944 111.558 26.1428 117.479Z" fill="#FFC120"/>
<path d="M26.1238 106.692C26.2606 103.512 26.9729 100.332 27.6407 97.2603C28.3594 93.9562 29.1989 90.843 30.9002 87.892C30.932 87.8379 31.0147 87.892 30.9861 87.9429C29.8505 90.2357 28.9717 92.647 28.3657 95.1328C28.4802 94.9548 28.617 94.7862 28.7378 94.6177C28.7823 94.5509 28.8936 94.6177 28.8459 94.6813C28.695 94.9489 28.5171 95.2004 28.3149 95.4318C28.3076 95.4342 28.2998 95.4342 28.2926 95.4318C27.7075 97.7977 27.2877 100.202 26.9252 102.625C26.9538 102.593 26.9793 102.561 27.0079 102.533C27.0365 102.504 27.0556 102.533 27.0429 102.561C26.9983 102.642 26.9506 102.721 26.8998 102.8C26.7185 104.024 26.55 105.245 26.3814 106.457C28.5597 104.593 30.4232 102.396 31.4694 99.693C31.4694 99.693 31.4949 99.693 31.4885 99.693C30.4614 102.498 28.8396 104.991 26.3433 106.689C26.2987 107.007 26.2542 107.325 26.2065 107.665C26.2065 107.732 26.0889 107.716 26.0889 107.649C26.0889 107.36 26.0889 107.074 26.1175 106.784C26.1016 106.768 26.0761 106.721 26.1238 106.692Z" fill="#263238"/>
<path d="M27.151 102.107C28.8173 99.6199 30.3723 97.2063 31.603 94.4747C31.603 94.446 31.6697 94.4747 31.657 94.4969C30.6299 97.2285 29.1925 99.9951 27.2464 102.186C27.1955 102.215 27.116 102.158 27.151 102.107Z" fill="#263238"/>
<path d="M29.3642 93.845C30.0542 92.6239 30.7824 91.4378 31.4312 90.1912C31.4312 90.1562 31.498 90.1912 31.4821 90.223C30.9499 91.5224 30.2748 92.7586 29.4691 93.9086C29.4246 93.969 29.3228 93.915 29.3642 93.845Z" fill="#263238"/>
<path d="M29.094 94.3761V94.3991C29.094 94.3991 29.0808 94.3761 29.094 94.3761Z" fill="#263238"/>
<path d="M24.4479 110.247C24.4154 111.904 24.2205 113.554 23.866 115.173C23.8914 115.351 23.9169 115.529 23.9423 115.714C24.452 113.924 24.7477 112.081 24.8232 110.222C24.8382 110.196 24.8462 110.166 24.8462 110.136C24.8462 110.106 24.8382 110.076 24.8232 110.05C24.8959 107.558 24.7116 105.064 24.273 102.609C23.4971 98.0108 21.8053 93.6001 18.5999 90.1562C18.5734 90.1338 18.5421 90.1177 18.5084 90.1091C18.4748 90.1005 18.4396 90.0998 18.4056 90.1068C18.3716 90.1139 18.3396 90.1286 18.3121 90.1498C18.2847 90.171 18.2623 90.1982 18.2469 90.2293C16.9527 93.5174 17.4042 97.4416 18.5045 100.723C19.1041 102.5 19.9612 104.179 21.0485 105.706C22.1551 107.252 23.5543 108.559 24.4479 110.247Z" fill="#FFC120"/>
<path d="M18.9845 91.6921C22.0246 96.6211 24.1361 102.469 24.3905 108.292C24.3905 108.393 24.222 108.422 24.2061 108.317C24.1329 107.792 24.0534 107.274 23.9707 106.759C22.7146 105.557 21.4267 104.285 20.5236 102.781C20.5217 102.775 20.5217 102.769 20.5236 102.763C20.5254 102.757 20.5292 102.752 20.5341 102.748C20.5391 102.745 20.5451 102.743 20.5512 102.743C20.5574 102.743 20.5633 102.745 20.5681 102.749C21.6621 103.999 22.6828 105.277 23.9167 106.393C23.6973 105.105 23.4397 103.849 23.1344 102.577L22.8959 102.294C22.8418 102.231 22.9309 102.142 22.9849 102.202L23.0581 102.285C22.6288 100.573 22.0979 98.8892 21.4681 97.2412C20.6922 96.319 19.8272 95.5208 19.2643 94.411C19.263 94.4057 19.2634 94.4002 19.2654 94.3952C19.2675 94.3902 19.2711 94.3859 19.2757 94.3831C19.2803 94.3803 19.2857 94.379 19.2911 94.3794C19.2965 94.3798 19.3016 94.382 19.3057 94.3855C19.7572 95.0215 20.1961 95.6575 20.7112 96.2522C20.9148 96.4875 21.1405 96.7069 21.3472 96.9359C20.6462 95.1496 19.8151 93.4172 18.8605 91.7525C18.8525 91.7361 18.8513 91.7171 18.8573 91.6998C18.8632 91.6825 18.8758 91.6683 18.8923 91.6603C18.9087 91.6523 18.9277 91.6511 18.945 91.6571C18.9623 91.6631 18.9765 91.6756 18.9845 91.6921Z" fill="#263238"/>
<path d="M19.6016 97.7723C20.581 99.0952 21.7004 100.358 22.6131 101.722C22.6385 101.76 22.5844 101.801 22.5495 101.77C21.376 100.669 20.3839 99.1683 19.5348 97.8136C19.5062 97.7691 19.573 97.7341 19.6016 97.7723Z" fill="#263238"/>
<path d="M22.7497 102.027L22.7942 102.069C22.798 102.075 22.7995 102.083 22.7984 102.09C22.7974 102.098 22.7939 102.105 22.7885 102.111C22.7831 102.116 22.7761 102.119 22.7685 102.12C22.7609 102.121 22.7531 102.12 22.7465 102.116L22.7051 102.078C22.6984 102.072 22.6943 102.064 22.6937 102.055C22.6931 102.046 22.6961 102.037 22.702 102.03C22.7079 102.024 22.7162 102.019 22.7252 102.019C22.7341 102.018 22.7429 102.021 22.7497 102.027Z" fill="#263238"/>
<path d="M14.2273 101.168C14.469 103.712 15.8173 106.737 17.4328 108.692C18.1504 109.54 19.0362 110.23 20.034 110.718C21.1597 111.278 22.3395 111.917 23.5034 112.375C24.0559 113.785 24.4681 115.247 24.7341 116.738C24.769 116.611 24.8072 116.48 24.8454 116.353C24.0949 109.929 19.9386 104.441 14.628 100.917C14.5866 100.889 14.5378 100.873 14.4875 100.872C14.4372 100.871 14.3877 100.884 14.3451 100.911C14.3025 100.938 14.2687 100.976 14.2477 101.022C14.2268 101.068 14.2197 101.119 14.2273 101.168Z" fill="#FFC120"/>
<path d="M16.0623 103.067C16.0241 103.035 16.0623 102.968 16.1164 102.997C19.0397 105.168 21.371 108.038 22.8961 111.345C22.9343 111.434 22.8134 111.51 22.7657 111.421C22.5177 110.988 22.2665 110.569 22.0089 110.149C20.7973 109.92 19.6462 109.065 18.7462 108.257C18.7208 108.235 18.7462 108.196 18.7812 108.219C19.245 108.642 19.7612 109.004 20.3171 109.297C20.8132 109.548 21.3443 109.707 21.8594 109.907C21.4079 109.195 20.9404 108.511 20.4507 107.847C19.141 107.347 17.9128 106.656 16.8064 105.795C16.7714 105.77 16.8064 105.716 16.8382 105.738C17.9357 106.401 19.0672 107.006 20.2281 107.551C19.4879 106.573 18.6893 105.64 17.8367 104.759C17.4233 104.543 17.0036 104.323 16.6061 104.091C16.5743 104.072 16.6061 104.015 16.6315 104.027C16.9665 104.145 17.2867 104.3 17.5855 104.492C17.0863 104.015 16.5934 103.534 16.0623 103.067Z" fill="#263238"/>
<path d="M16.1767 105.283C16.2483 105.327 16.3164 105.376 16.3803 105.43C16.3993 105.449 16.3803 105.474 16.3548 105.465C16.2811 105.429 16.2099 105.389 16.1418 105.344C16.1344 105.339 16.1291 105.331 16.1271 105.323C16.1251 105.314 16.1265 105.305 16.1309 105.297C16.1354 105.29 16.1426 105.284 16.1511 105.281C16.1596 105.279 16.1688 105.279 16.1767 105.283Z" fill="#263238"/>
<path d="M33.1389 130.647H18.5713L19.7479 117.38L20.0055 114.455H31.7047L31.9623 117.38L33.1389 130.647Z" fill="#455A64"/>
<path d="M31.9622 117.38H19.7478L20.0054 114.455H31.7046L31.9622 117.38Z" fill="#263238"/>
<path d="M32.4011 112.41H19.3091V115.304H32.4011V112.41Z" fill="#455A64"/>
<path d="M11.6738 130.65L28.6296 130.574L45.5854 130.545L79.5001 130.491L113.412 130.545L130.371 130.574L147.326 130.65L130.371 130.73L113.412 130.758L79.5001 130.809L45.5854 130.755L28.6296 130.73L11.6738 130.65Z" fill="#263238"/>
<path d="M95.7436 102.981L92.9166 102.685C92.8832 101.927 92.7396 101.177 92.4904 100.459C91.5015 97.677 89.3422 95.3715 87.6886 93.0851C87.6886 93.0851 87.6696 93.085 87.6886 93.101C89.3373 95.4532 90.5879 98.0606 91.3902 100.819C91.5375 101.378 91.6186 101.952 91.6318 102.53L89.8701 102.348C89.8794 100.657 89.4859 98.9885 88.7221 97.4798C88.6999 97.4353 88.6267 97.4798 88.6458 97.5371C89.2818 99.0635 89.3613 100.666 89.2341 102.307L73.9479 100.695C73.7764 99.292 73.72 97.8774 73.7793 96.4654C73.7821 96.449 73.7812 96.4322 73.7768 96.4161C73.7724 96.4001 73.7646 96.3852 73.7538 96.3725C73.7431 96.3597 73.7297 96.3495 73.7146 96.3425C73.6995 96.3355 73.6831 96.3319 73.6664 96.3319C73.6498 96.3319 73.6333 96.3355 73.6182 96.3425C73.6031 96.3495 73.5898 96.3597 73.579 96.3725C73.5683 96.3852 73.5604 96.4001 73.556 96.4161C73.5516 96.4322 73.5508 96.449 73.5535 96.4654C73.4725 97.8592 73.4725 99.2565 73.5535 100.65L72.2815 100.51C72.2124 98.0907 72.4539 95.6722 73.0002 93.314C73.0041 93.306 73.0062 93.2973 73.0063 93.2885C73.0065 93.2796 73.0047 93.2708 73.001 93.2627C72.9974 93.2546 72.992 93.2474 72.9853 93.2417C72.9786 93.2359 72.9706 93.2317 72.9621 93.2293C72.9536 93.2269 72.9446 93.2264 72.9359 93.2279C72.9271 93.2294 72.9188 93.2328 72.9115 93.2378C72.9042 93.2429 72.8981 93.2495 72.8937 93.2572C72.8892 93.2648 72.8865 93.2734 72.8857 93.2822C72.2063 95.6158 71.7798 98.0156 71.6137 100.44L61.0307 99.3306C61.7552 97.8422 62.3561 96.2968 62.8274 94.71C62.8719 94.5797 62.6779 94.5256 62.6334 94.6592C62.0675 96.2731 61.3208 97.8178 60.4074 99.2638L58.8365 99.1016C60.223 96.5067 61.3074 93.7719 61.6985 90.8718C61.6985 90.7541 61.53 90.7319 61.5077 90.8495C60.913 93.9659 59.2022 96.4654 57.5009 98.9585L53.5164 98.5419C55.0618 96.211 57.6122 94.1631 58.1369 91.3265C58.7157 88.1465 55.8727 86.423 55.1604 83.6659C53.9647 79.0485 56.4706 75.8431 59.5425 72.9302C62.3663 70.2399 62.2995 66.9486 63.1772 63.3457C63.8132 60.6936 64.7672 57.7712 66.3381 55.5261C71.1526 48.5937 78.8769 50.1201 78.8769 50.2091C80.6812 50.3548 82.4101 50.9964 83.8726 52.0631C83.88 52.0613 83.8876 52.0613 83.8949 52.0631C83.9965 52.1338 84.0932 52.2113 84.1843 52.2952C85.8433 53.6628 87.1352 55.4225 87.943 57.415V57.4404C88.2224 58.0817 88.4665 58.7378 88.6744 59.4057C89.0497 60.6173 89.0401 62.2677 89.3104 64.1757C89.3039 64.2125 89.3039 64.2502 89.3104 64.287C89.7225 67.7332 91.4232 70.896 94.0709 73.1401C98.1095 76.7081 96.6308 81.9423 92.8752 87.0431C91.2852 89.2055 91.1517 90.6587 91.6509 91.9434C91.6509 91.9434 91.6509 91.9434 91.6509 91.9625C91.7272 92.1374 91.7972 92.2805 91.8831 92.4554C92.6304 93.8801 94.0614 95.1743 94.9804 97.1141C95.8422 98.8981 95.9439 100.949 95.7436 102.981Z" fill="#263238"/>
<path d="M72.0939 50.7974C68.788 52.3073 66.216 55.0669 64.9421 58.4707C63.8959 61.1896 63.6256 64.1947 62.2995 66.8087C61.0466 69.2732 58.9955 71.0699 57.3101 73.1687C55.0841 75.9384 53.5641 79.4046 55.0841 82.8104C56.0381 84.9219 58.2641 87.0971 57.9779 89.6983C57.6599 92.7352 54.8488 95.5209 53.2842 97.9663C53.2079 98.084 53.3764 98.2271 53.4623 98.1126C55.5547 95.381 59.1481 91.8353 58.2323 88.0352C57.8062 86.2957 56.7441 84.9251 55.9268 83.4146C54.3368 80.4827 54.8774 77.4744 56.7663 74.6728C59.3262 70.8791 62.5539 68.5322 63.8609 63.8608C64.605 61.1896 65.0184 58.4262 66.5226 56.0571C67.896 53.8722 69.8564 52.1179 72.1798 50.9945C72.2561 50.9341 72.1861 50.7528 72.0939 50.7974Z" fill="#263238"/>
<path d="M93.7816 96.2969C92.7067 94.6242 91.3393 93.3585 92.093 90.9672C92.6177 89.3104 93.8643 87.9366 94.7451 86.4897C96.9489 82.8804 98.3385 78.2567 96.5673 74.3008C95.5687 72.0748 93.7053 71.4388 92.182 69.7502C90.3408 67.7118 89.778 64.7163 89.2914 61.956C88.5632 57.822 87.6156 53.0934 83.4243 51.9041C83.3893 51.9041 83.3734 51.9549 83.4243 51.9677C88.7413 53.8343 88.3597 60.7286 89.6667 65.5971C90.1119 67.2507 90.7828 68.8566 91.8927 70.0809C93.648 72.0207 95.8645 72.768 96.6627 75.6618C97.4227 78.3744 96.8853 81.3 95.7532 83.9044C94.7737 86.1622 93.0756 87.9971 92.1375 90.2644C91.5747 91.6127 91.3839 93.031 92.004 94.3252C92.4905 95.3397 93.3714 96.052 93.912 97.0378C94.5957 98.3908 94.874 99.9124 94.7133 101.42C94.7133 101.576 94.92 101.566 94.9359 101.42C95.1511 99.6303 94.7435 97.8212 93.7816 96.2969Z" fill="#263238"/>
<path d="M80.4795 92.5667C88.191 106.206 108.146 125.422 114.064 122.357C121.32 118.595 122.697 99.8584 122.153 95.6227C121.835 93.0787 101.945 93.5557 102.437 96.2587C102.733 97.8487 103.341 99.5277 102.965 99.321C101.792 98.685 98.7868 95.823 87.7427 87.5932C81.6021 82.9981 75.3661 83.5387 80.4795 92.5667Z" fill="#F7A9A0"/>
<path d="M104.304 110.861C103.598 109.033 102.021 103.907 103.096 99.1334C103.096 99.0794 103.169 99.0857 103.166 99.1334C102.74 103.115 103.802 108.976 104.365 110.823C104.371 110.877 104.304 110.909 104.304 110.861Z" fill="#263238"/>
<path d="M119.657 82.6801C121.565 86.2989 122.573 95.222 121.988 97.4671C121.403 99.7122 106.288 101.919 104.571 100.281C102.854 98.6437 97.3749 85.9523 98.1636 81.8533C98.9522 77.7543 117.679 78.9181 119.657 82.6801Z" fill="#F7A9A0"/>
<path d="M99.779 72.5517C98.7804 70.9394 94.6369 66.586 93.2409 67.4637C91.8449 68.3414 93.985 72.0206 94.9008 73.4866C96.7929 76.5013 97.7279 81.3317 98.1381 83.6785C98.5483 86.0254 103.544 82.6228 103.544 82.6228C103.544 82.6228 102.371 76.7334 99.779 72.5517Z" fill="#F7A9A0"/>
<path d="M100.329 86.6741C100.329 86.6741 100.946 90.8304 103.306 91.2438C105.579 91.6349 105.767 88.2069 105.783 87.962C105.818 88.1814 106.482 91.9879 108.896 92.1564C111.405 92.3313 111.001 88.8588 110.973 88.633C111.071 88.8302 112.407 91.4155 114.27 91.1293C117.473 90.63 114.238 83.9266 115.205 81.4875C115.205 81.4875 119.524 82.6578 119.657 82.6641C119.657 82.6641 116.709 76.2215 113.351 75.0989C112.863 74.9291 112.332 74.9311 111.846 75.1046C111.359 75.2781 110.947 75.6127 110.677 76.0529C110.677 76.0529 109.958 73.8714 108.06 73.6775C107.087 73.5821 106.066 75.0512 106.066 75.0512C106.066 75.0512 105.43 73.3277 103.719 73.2609C102.364 73.2036 101.369 74.7014 101.175 75.3152C99.5691 80.0406 100.329 86.6741 100.329 86.6741Z" fill="#F7A9A0"/>
<path d="M101.388 74.8953C101.388 74.8572 101.343 74.8381 101.331 74.8763C99.8521 78.5237 99.3496 82.998 100.3 86.814C100.329 86.938 100.548 86.9412 100.542 86.7981C100.32 82.6609 100.453 78.9626 101.388 74.8953Z" fill="#263238"/>
<path d="M106.05 74.9812C106.05 74.9367 105.99 74.9208 105.971 74.9812C104.47 78.7495 104.04 83.7866 105.653 88.086C105.71 88.2355 105.907 88.3118 105.856 88.1369C105.001 85.1795 105.191 78.6382 106.05 74.9812Z" fill="#263238"/>
<path d="M111.189 88.8937C109.799 84.712 109.891 80.5049 110.604 76.196C110.604 76.1388 110.534 76.1324 110.515 76.1769C109.589 78.1899 109.421 80.9819 109.472 83.1729C109.483 85.2029 110.025 87.1946 111.042 88.951C111.084 89.0146 111.221 88.986 111.189 88.8937Z" fill="#263238"/>
<path d="M100.329 86.6741C100.52 87.4599 100.783 88.2263 101.115 88.9637C101.408 89.6931 101.89 90.3317 102.511 90.8145C102.806 91.0206 103.168 91.109 103.525 91.0625C103.886 91.0122 104.227 90.8698 104.517 90.6491C104.787 90.4061 105.003 90.1089 105.151 89.7769C105.299 89.4449 105.376 89.0855 105.376 88.722L105.449 86.9444L105.996 88.6394C106.235 89.3926 106.593 90.1023 107.058 90.7414C107.519 91.3583 108.146 91.848 108.842 91.8957C109.179 91.9457 109.522 91.8781 109.815 91.7044C110.107 91.5306 110.331 91.2612 110.448 90.9417C110.696 90.2204 110.758 89.4483 110.629 88.6966L110.337 86.6137L111.291 88.4772C111.555 88.9976 111.885 89.4818 112.273 89.9177C112.623 90.3459 113.092 90.6603 113.621 90.8209C113.862 90.8836 114.116 90.8778 114.353 90.8042C114.591 90.7306 114.803 90.5921 114.967 90.4043C115.271 89.93 115.432 89.3779 115.431 88.8143C115.449 87.5964 115.372 86.3789 115.199 85.1732C115.135 84.5594 115.068 83.9457 115.03 83.3256C114.959 82.7074 115.018 82.0811 115.205 81.4875C115.087 82.0892 115.087 82.708 115.205 83.3097C115.291 83.9171 115.402 84.5213 115.523 85.1287C115.784 86.3483 115.928 87.5897 115.956 88.8365C115.981 89.5125 115.809 90.1811 115.46 90.7604C115.235 91.0535 114.93 91.275 114.581 91.3981C114.233 91.5211 113.857 91.5404 113.497 91.4537C112.834 91.273 112.24 90.8975 111.793 90.3757C111.353 89.8963 110.976 89.3618 110.674 88.7857L111.335 88.5662C111.505 89.4523 111.442 90.3675 111.151 91.2215C110.972 91.6915 110.634 92.0842 110.197 92.3314C109.764 92.5623 109.272 92.6576 108.785 92.6048C107.796 92.5094 107.029 91.8353 106.524 91.1389C106.021 90.4295 105.64 89.6419 105.395 88.8079L106.015 88.7284C105.999 89.179 105.885 89.6207 105.68 90.0223C105.475 90.4239 105.184 90.7758 104.829 91.053C104.457 91.3093 104.026 91.4649 103.576 91.5045C103.121 91.5385 102.669 91.4063 102.304 91.1325C101.592 90.5919 101.232 89.8001 100.933 89.0432C100.643 88.2789 100.44 87.4841 100.329 86.6741Z" fill="#263238"/>
<path d="M103.258 98.2621C103.258 98.2621 89.7778 87.342 96.6275 84.1652C98.6627 83.2112 108.152 81.7706 108.479 83.6722C108.902 86.124 105.055 87.4692 102.504 87.9271C102.504 87.9271 107.614 90.999 106.536 95.1934C105.862 97.8296 103.258 98.2621 103.258 98.2621Z" fill="#F7A9A0"/>
<path d="M96.0742 84.4704C96.8286 84.0056 97.6472 83.6542 98.5037 83.4273C99.3536 83.1762 100.219 82.9829 101.095 82.8486C102.848 82.5531 104.623 82.4105 106.4 82.4224C106.873 82.4282 107.343 82.4999 107.796 82.6355C108.055 82.7162 108.294 82.853 108.495 83.0362C108.607 83.1356 108.701 83.254 108.772 83.386C108.841 83.5164 108.888 83.6571 108.912 83.8026C108.991 84.33 108.878 84.8682 108.594 85.3194C108.33 85.728 107.997 86.0883 107.611 86.3847C106.869 86.9282 106.04 87.3412 105.159 87.6058C104.307 87.8814 103.435 88.0939 102.552 88.2418L102.65 87.6758C103.22 88.0484 103.752 88.4743 104.24 88.9478C104.729 89.4134 105.171 89.9269 105.557 90.4806C105.938 91.0377 106.234 91.6486 106.435 92.2932C106.639 92.9301 106.718 93.6009 106.667 94.2679C106.631 93.6121 106.485 92.9671 106.234 92.3599C105.98 91.7651 105.647 91.2077 105.242 90.7032C104.844 90.1959 104.395 89.7303 103.903 89.3135C103.417 88.8974 102.893 88.5269 102.339 88.2069L101.652 87.8189L102.437 87.6376C103.282 87.4655 104.114 87.2371 104.927 86.9539C105.725 86.6941 106.477 86.3087 107.153 85.8123C107.789 85.3226 108.298 84.6071 108.174 83.9425C108.117 83.3446 107.169 83.1729 106.346 83.1252C105.482 83.0808 104.617 83.0808 103.754 83.1252C102.879 83.1602 102.008 83.2079 101.143 83.3001C99.4355 83.5195 97.6738 83.7294 96.0742 84.4704Z" fill="#263238"/>
<path d="M90.2039 110.397L99.0093 94.9294C99.0093 94.9294 88.7634 86.6614 82.556 83.5641C79.0771 81.8183 77.6747 84.4958 78.6605 87.873C82.1045 99.6867 90.2039 110.397 90.2039 110.397Z" fill="#FFC120"/>
<path d="M90.2039 110.397L99.0093 94.9294C99.0093 94.9294 88.7634 86.6614 82.556 83.5641C79.0771 81.8183 77.6747 84.4958 78.6605 87.873C82.1045 99.6867 90.2039 110.397 90.2039 110.397Z" fill="#FFC120"/>
<path d="M78.3775 85.3767C78.3662 85.4749 78.3598 85.5736 78.3584 85.6724C78.3991 85.7735 78.4196 85.8815 78.4188 85.9904C78.4201 86.0851 78.4028 86.1791 78.3679 86.2671C78.3679 86.3657 78.3679 86.4706 78.3934 86.5851C78.5203 86.4178 78.5885 86.2132 78.5874 86.0032C78.5918 85.7764 78.5176 85.555 78.3775 85.3767ZM85.0968 89.0941C84.9033 89.0935 84.714 89.1504 84.5529 89.2576C84.3918 89.3647 84.2662 89.5174 84.192 89.6961C84.1178 89.8748 84.0984 90.0715 84.1362 90.2612C84.1741 90.451 84.2674 90.6252 84.4045 90.7618C84.5415 90.8984 84.7161 90.9912 84.9059 91.0284C85.0958 91.0656 85.2925 91.0456 85.4709 90.9708C85.6494 90.896 85.8016 90.7699 85.9082 90.6085C86.0149 90.447 86.0712 90.2575 86.0699 90.064C86.0674 89.807 85.964 89.5613 85.7819 89.3798C85.5999 89.1984 85.3538 89.0958 85.0968 89.0941ZM85.0968 90.8781C84.9362 90.88 84.7786 90.8341 84.6441 90.7463C84.5095 90.6585 84.4041 90.5327 84.3412 90.3849C84.2783 90.2371 84.2607 90.0739 84.2906 89.9161C84.3205 89.7583 84.3967 89.6129 84.5094 89.4984C84.6221 89.3839 84.7663 89.3055 84.9236 89.2731C85.0809 89.2406 85.2444 89.2557 85.3931 89.3163C85.5419 89.3769 85.6694 89.4803 85.7593 89.6134C85.8492 89.7465 85.8975 89.9034 85.8982 90.064C85.899 90.278 85.8153 90.4836 85.6652 90.6361C85.5151 90.7886 85.3108 90.8756 85.0968 90.8781ZM90.2516 103.207C90.0591 103.207 89.871 103.264 89.711 103.371C89.551 103.478 89.4262 103.63 89.3526 103.808C89.2789 103.985 89.2597 104.181 89.2972 104.37C89.3348 104.559 89.4274 104.732 89.5635 104.868C89.6996 105.004 89.873 105.097 90.0618 105.134C90.2505 105.172 90.4462 105.153 90.624 105.079C90.8018 105.005 90.9538 104.881 91.0607 104.721C91.1676 104.561 91.2247 104.372 91.2247 104.18C91.2247 103.922 91.1222 103.674 90.9397 103.492C90.7572 103.309 90.5097 103.207 90.2516 103.207ZM90.2516 104.981C90.1461 104.982 90.0415 104.961 89.944 104.921C89.8464 104.881 89.7576 104.822 89.6829 104.748C89.6081 104.673 89.5488 104.585 89.5084 104.487C89.4679 104.39 89.4471 104.286 89.4471 104.18C89.4471 103.967 89.5318 103.762 89.6827 103.611C89.8336 103.46 90.0382 103.376 90.2516 103.376C90.465 103.376 90.6696 103.46 90.8205 103.611C90.9714 103.762 91.0561 103.967 91.0561 104.18C91.0561 104.286 91.0353 104.39 90.9948 104.487C90.9544 104.585 90.8951 104.673 90.8203 104.748C90.7456 104.822 90.6568 104.881 90.5592 104.921C90.4616 104.961 90.3571 104.982 90.2516 104.981ZM84.3877 96.8788C84.1952 96.8788 84.0071 96.9358 83.8471 97.0428C83.687 97.1497 83.5623 97.3017 83.4887 97.4795C83.415 97.6573 83.3958 97.8529 83.4333 98.0417C83.4708 98.2304 83.5635 98.4038 83.6996 98.5399C83.8357 98.676 84.0091 98.7687 84.1978 98.8062C84.3866 98.8438 84.5823 98.8245 84.7601 98.7509C84.9379 98.6772 85.0898 98.5525 85.1968 98.3925C85.3037 98.2324 85.3608 98.0443 85.3608 97.8518C85.3608 97.5938 85.2582 97.3463 85.0758 97.1638C84.8933 96.9813 84.6458 96.8788 84.3877 96.8788ZM84.3877 98.6532C84.1743 98.6532 83.9697 98.5684 83.8188 98.4176C83.6679 98.2667 83.5831 98.062 83.5831 97.8487C83.5831 97.6353 83.6679 97.4306 83.8188 97.2798C83.9697 97.1289 84.1743 97.0441 84.3877 97.0441C84.6011 97.0441 84.8057 97.1289 84.9566 97.2798C85.1074 97.4306 85.1922 97.6353 85.1922 97.8487C85.1922 98.062 85.1074 98.2667 84.9566 98.4176C84.8057 98.5684 84.6011 98.6532 84.3877 98.6532ZM93.3648 93.8832C93.1059 93.8832 92.8576 93.9861 92.6745 94.1691C92.4914 94.3522 92.3886 94.6005 92.3886 94.8595C92.3886 95.1184 92.4914 95.3667 92.6745 95.5498C92.8576 95.7329 93.1059 95.8357 93.3648 95.8357C93.6237 95.8357 93.8721 95.7329 94.0551 95.5498C94.2382 95.3667 94.3411 95.1184 94.3411 94.8595C94.3411 94.6005 94.2382 94.3522 94.0551 94.1691C93.8721 93.9861 93.6237 93.8832 93.3648 93.8832ZM93.3648 95.6672C93.2045 95.6684 93.0475 95.622 92.9137 95.5337C92.7799 95.4454 92.6754 95.3194 92.6135 95.1715C92.5515 95.0237 92.535 94.8607 92.566 94.7035C92.5969 94.5462 92.674 94.4017 92.7873 94.2883C92.9007 94.175 93.0452 94.0979 93.2025 94.067C93.3597 94.036 93.5227 94.0525 93.6705 94.1145C93.8184 94.1764 93.9444 94.2809 94.0327 94.4147C94.121 94.5485 94.1674 94.7055 94.1662 94.8658C94.1645 95.0776 94.0794 95.2801 93.9294 95.4295C93.7794 95.5789 93.5765 95.6632 93.3648 95.664V95.6672Z" fill="white"/>
<path opacity="0.1" d="M97.0125 98.4369L90.2041 110.397C90.2041 110.397 82.1046 99.6867 78.6607 87.873C78.2918 86.601 78.2568 85.4466 78.5398 84.5753L97.0125 98.4369Z" fill="black"/>
<path d="M96.2683 94.0835C94.7165 96.3508 90.6842 102.622 88.5981 107.042C88.5981 107.067 88.6808 107.128 88.6967 107.102C90.9863 103.69 95.0567 96.567 96.4114 94.1725C96.4368 94.128 96.2969 94.0421 96.2683 94.0835Z" fill="#263238"/>
<path d="M45.3945 130.475L93.2885 130.38L90.63 113.895C90.63 113.895 94.4174 109.3 93.7019 104.314C92.9165 98.8503 83.0648 85.0046 82.238 84.2223C78.9022 81.0932 75.3724 80.5335 71.9825 81.6624C56.3242 91.5045 45.3945 130.475 45.3945 130.475Z" fill="#FFC120"/>
<path d="M92.2774 124.084C92.2025 124.175 92.1083 124.248 92.0017 124.299C91.895 124.35 91.7785 124.376 91.6605 124.376C91.5499 124.383 91.4391 124.367 91.3349 124.33C91.2307 124.292 91.1353 124.234 91.0546 124.158C90.9738 124.082 90.9095 123.991 90.8655 123.889C90.8215 123.787 90.7988 123.678 90.7988 123.567C90.7988 123.456 90.8215 123.347 90.8655 123.245C90.9095 123.143 90.9738 123.052 91.0546 122.976C91.1353 122.9 91.2307 122.842 91.3349 122.804C91.4391 122.766 91.5499 122.751 91.6605 122.758C91.8115 122.757 91.9594 122.8 92.0866 122.882L92.0516 122.675C91.9288 122.619 91.7953 122.591 91.6605 122.592C91.502 122.592 91.3458 122.63 91.2054 122.704C91.0651 122.777 90.9447 122.884 90.8548 123.015C90.7648 123.145 90.708 123.296 90.6892 123.453C90.6705 123.61 90.6903 123.77 90.747 123.918C90.8037 124.066 90.8956 124.198 91.0147 124.302C91.1339 124.407 91.2767 124.481 91.4308 124.518C91.5849 124.555 91.7457 124.554 91.8993 124.515C92.0529 124.476 92.1947 124.4 92.3124 124.294L92.2774 124.084ZM82.6102 119.053C82.417 119.052 82.2279 119.109 82.067 119.216C81.906 119.323 81.7804 119.475 81.706 119.653C81.6316 119.832 81.6118 120.028 81.6491 120.218C81.6865 120.407 81.7792 120.582 81.9156 120.718C82.052 120.855 82.2259 120.949 82.4154 120.986C82.6049 121.024 82.8013 121.005 82.9799 120.931C83.1585 120.858 83.3111 120.733 83.4185 120.572C83.5259 120.411 83.5833 120.222 83.5833 120.029C83.5833 119.771 83.4809 119.523 83.2985 119.34C83.1161 119.157 82.8686 119.054 82.6102 119.053ZM82.6102 120.837C82.4505 120.837 82.2943 120.79 82.1615 120.701C82.0286 120.612 81.9251 120.486 81.864 120.338C81.8028 120.191 81.7868 120.028 81.818 119.872C81.8492 119.715 81.9261 119.571 82.0391 119.458C82.152 119.345 82.2959 119.268 82.4526 119.237C82.6093 119.206 82.7717 119.222 82.9193 119.283C83.0669 119.344 83.1931 119.448 83.2818 119.58C83.3706 119.713 83.4179 119.869 83.4179 120.029C83.4183 120.136 83.3978 120.241 83.3574 120.339C83.3169 120.438 83.2575 120.527 83.1825 120.602C83.1074 120.678 83.0182 120.738 82.92 120.778C82.8218 120.819 82.7165 120.84 82.6102 120.84V120.837ZM90.2422 103.207C90.049 103.207 89.8601 103.264 89.6995 103.372C89.5389 103.479 89.4138 103.632 89.34 103.81C89.2662 103.989 89.247 104.185 89.2849 104.375C89.3229 104.564 89.4162 104.738 89.553 104.875C89.6899 105.011 89.8641 105.104 90.0537 105.141C90.2433 105.178 90.4397 105.159 90.618 105.084C90.7963 105.01 90.9486 104.884 91.0555 104.723C91.1624 104.562 91.2191 104.373 91.2185 104.18C91.2176 103.923 91.1153 103.676 90.9337 103.494C90.752 103.312 90.5058 103.209 90.2486 103.207H90.2422ZM90.2422 104.991C90.0817 104.992 89.9246 104.945 89.7908 104.856C89.6571 104.767 89.5526 104.641 89.4908 104.493C89.4289 104.344 89.4124 104.181 89.4433 104.024C89.4743 103.866 89.5512 103.722 89.6645 103.608C89.7778 103.494 89.9223 103.417 90.0797 103.385C90.237 103.353 90.4002 103.369 90.5486 103.431C90.697 103.492 90.8238 103.596 90.913 103.729C91.0023 103.863 91.0499 104.02 91.0499 104.18C91.0508 104.394 90.9669 104.599 90.8167 104.751C90.6665 104.903 90.4622 104.989 90.2486 104.991H90.2422ZM55.1414 127.862C54.8824 127.862 54.6341 127.964 54.451 128.147C54.268 128.331 54.1651 128.579 54.1651 128.838C54.1651 129.097 54.268 129.345 54.451 129.528C54.6341 129.711 54.8824 129.814 55.1414 129.814C55.4003 129.814 55.6486 129.711 55.8317 129.528C56.0148 129.345 56.1176 129.097 56.1176 128.838C56.1176 128.579 56.0148 128.331 55.8317 128.147C55.6486 127.964 55.4003 127.862 55.1414 127.862ZM55.1414 129.646C54.9811 129.647 54.824 129.6 54.6902 129.512C54.5564 129.424 54.4519 129.298 54.39 129.15C54.3281 129.002 54.3116 128.839 54.3425 128.682C54.3735 128.525 54.4505 128.38 54.5639 128.267C54.6772 128.153 54.8217 128.076 54.979 128.045C55.1363 128.014 55.2992 128.031 55.4471 128.093C55.5949 128.155 55.721 128.259 55.8093 128.393C55.8975 128.527 55.944 128.684 55.9427 128.844C55.9419 129.056 55.8572 129.26 55.7071 129.41C55.557 129.56 55.3536 129.645 55.1414 129.646ZM65.0661 124.656C64.8722 124.652 64.6813 124.705 64.5178 124.81C64.3544 124.914 64.2258 125.065 64.1485 125.243C64.0712 125.421 64.0486 125.618 64.0838 125.809C64.1189 126 64.2101 126.176 64.3457 126.314C64.4813 126.453 64.6551 126.548 64.8451 126.588C65.035 126.627 65.2325 126.609 65.4122 126.536C65.5918 126.463 65.7457 126.338 65.8539 126.177C65.9622 126.016 66.0201 125.826 66.0201 125.632C66.0202 125.377 65.9204 125.132 65.7421 124.95C65.5638 124.767 65.3212 124.662 65.0661 124.656ZM65.0661 126.434C64.9059 126.435 64.7488 126.389 64.615 126.3C64.4812 126.212 64.3767 126.086 64.3148 125.938C64.2529 125.79 64.2363 125.627 64.2673 125.47C64.2983 125.313 64.3753 125.168 64.4887 125.055C64.602 124.942 64.7465 124.864 64.9038 124.834C65.0611 124.803 65.224 124.819 65.3718 124.881C65.5197 124.943 65.6458 125.047 65.734 125.181C65.8223 125.315 65.8688 125.472 65.8675 125.632C65.8667 125.845 65.7821 126.049 65.6321 126.199C65.482 126.35 65.2787 126.435 65.0661 126.437V126.434ZM57.5582 100.002C57.5127 99.9968 57.4669 99.9968 57.4214 100.002C57.3864 100.065 57.3515 100.129 57.3197 100.192C57.3977 100.174 57.478 100.166 57.5582 100.17C57.707 100.169 57.8532 100.209 57.9806 100.286C58.1079 100.363 58.2115 100.474 58.2796 100.606C58.3478 100.738 58.378 100.887 58.3668 101.035C58.3555 101.184 58.3034 101.326 58.2161 101.447C58.1288 101.567 58.0098 101.661 57.8723 101.718C57.7348 101.775 57.5843 101.793 57.4373 101.769C57.2904 101.746 57.1528 101.682 57.04 101.585C56.9272 101.488 56.8434 101.361 56.7981 101.219C56.76 101.289 56.7282 101.353 56.6964 101.42C56.7755 101.574 56.8942 101.704 57.0402 101.796C57.1863 101.889 57.3544 101.941 57.5272 101.947C57.7001 101.953 57.8714 101.913 58.0236 101.831C58.1759 101.749 58.3034 101.628 58.3932 101.48C58.4831 101.332 58.5319 101.163 58.5346 100.99C58.5374 100.817 58.494 100.647 58.4089 100.496C58.3238 100.345 58.2002 100.22 58.0506 100.133C57.9011 100.046 57.7311 100.001 57.5582 100.002ZM60.3025 107.465C60.1098 107.464 59.9212 107.521 59.7607 107.628C59.6002 107.734 59.475 107.886 59.4009 108.064C59.3269 108.242 59.3074 108.438 59.3448 108.627C59.3822 108.816 59.475 108.99 59.6113 109.126C59.7475 109.262 59.9212 109.355 60.1103 109.393C60.2993 109.43 60.4952 109.411 60.6732 109.336C60.8511 109.262 61.0031 109.137 61.1097 108.977C61.2164 108.816 61.273 108.628 61.2724 108.435C61.2716 108.178 61.1696 107.933 60.9885 107.751C60.8075 107.57 60.5621 107.467 60.3057 107.465H60.3025ZM60.3025 109.239C60.1433 109.24 59.9874 109.193 59.8547 109.105C59.7219 109.017 59.6183 108.892 59.5569 108.745C59.4956 108.598 59.4792 108.436 59.5099 108.28C59.5405 108.124 59.6169 107.98 59.7293 107.867C59.8417 107.754 59.985 107.677 60.1412 107.646C60.2973 107.615 60.4593 107.631 60.6065 107.691C60.7537 107.752 60.8795 107.855 60.9681 107.988C61.0566 108.12 61.1039 108.276 61.1039 108.435C61.1022 108.647 61.0178 108.849 60.8687 109C60.7195 109.15 60.5174 109.236 60.3057 109.239H60.3025ZM68.3193 87.1893C68.0604 87.1893 67.8121 87.2922 67.629 87.4753C67.4459 87.6584 67.343 87.9067 67.343 88.1656C67.343 88.4245 67.4459 88.6728 67.629 88.8559C67.8121 89.039 68.0604 89.1419 68.3193 89.1419C68.5782 89.1419 68.8265 89.039 69.0096 88.8559C69.1927 88.6728 69.2955 88.4245 69.2955 88.1656C69.2955 87.9067 69.1927 87.6584 69.0096 87.4753C68.8265 87.2922 68.5782 87.1893 68.3193 87.1893ZM68.3193 88.9733C68.1599 88.9721 68.0045 88.9237 67.8726 88.8343C67.7407 88.7449 67.6382 88.6186 67.5779 88.471C67.5176 88.3235 67.5024 88.1615 67.534 88.0053C67.5656 87.8491 67.6427 87.7058 67.7556 87.5934C67.8685 87.4809 68.0122 87.4043 68.1685 87.3733C68.3247 87.3423 68.4867 87.3582 68.634 87.4191C68.7813 87.4799 68.9073 87.5829 68.9961 87.7152C69.085 87.8475 69.1327 88.0031 69.1334 88.1624C69.1338 88.269 69.1131 88.3747 69.0725 88.4732C69.0319 88.5718 68.9722 88.6614 68.8968 88.7367C68.8214 88.8121 68.7319 88.8718 68.6333 88.9124C68.5347 88.953 68.4291 88.9737 68.3225 88.9733H68.3193ZM69.2987 104.097C69.1055 104.097 68.9166 104.155 68.756 104.262C68.5954 104.37 68.4703 104.522 68.3965 104.701C68.3227 104.879 68.3035 105.076 68.3415 105.265C68.3794 105.455 68.4727 105.629 68.6095 105.765C68.7464 105.902 68.9206 105.994 69.1102 106.032C69.2998 106.069 69.4962 106.049 69.6745 105.975C69.8529 105.9 70.0051 105.775 70.112 105.614C70.2189 105.453 70.2756 105.264 70.275 105.07C70.275 104.812 70.1725 104.565 69.99 104.382C69.8075 104.2 69.56 104.097 69.3019 104.097H69.2987ZM69.2987 105.881C69.1391 105.881 68.9831 105.834 68.8503 105.745C68.7176 105.657 68.614 105.531 68.5528 105.383C68.4916 105.236 68.4754 105.074 68.5063 104.917C68.5372 104.761 68.6138 104.617 68.7265 104.504C68.8391 104.391 68.9827 104.313 69.1392 104.282C69.2957 104.25 69.458 104.266 69.6056 104.327C69.7533 104.387 69.8796 104.49 69.9688 104.623C70.0579 104.755 70.1058 104.911 70.1064 105.07C70.1086 105.178 70.0893 105.284 70.0499 105.384C70.0104 105.483 69.9516 105.574 69.8767 105.651C69.8018 105.727 69.7124 105.788 69.6137 105.83C69.5151 105.872 69.4091 105.894 69.3019 105.894L69.2987 105.881ZM77.6144 85.0047C77.4206 85.0002 77.2298 85.0536 77.0665 85.1581C76.9031 85.2625 76.7745 85.4132 76.6971 85.5909C76.6197 85.7687 76.597 85.9655 76.6318 86.1562C76.6667 86.3469 76.7575 86.523 76.8928 86.6619C77.0281 86.8007 77.2017 86.8962 77.3914 86.9361C77.5812 86.9759 77.7785 86.9584 77.9582 86.8857C78.138 86.813 78.292 86.6884 78.4007 86.5279C78.5093 86.3673 78.5677 86.178 78.5684 85.9841C78.5685 85.7292 78.4693 85.4843 78.2917 85.3015C78.1142 85.1186 77.8724 85.0121 77.6176 85.0047H77.6144ZM77.6144 86.7855C77.4541 86.7867 77.2971 86.7403 77.1633 86.652C77.0295 86.5637 76.925 86.4376 76.8631 86.2898C76.8012 86.142 76.7846 85.979 76.8156 85.8217C76.8465 85.6645 76.9236 85.52 77.0369 85.4066C77.1503 85.2933 77.2948 85.2162 77.4521 85.1853C77.6093 85.1543 77.7723 85.1708 77.9201 85.2328C78.068 85.2947 78.194 85.3992 78.2823 85.533C78.3706 85.6668 78.417 85.8238 78.4158 85.9841C78.415 86.1958 78.3307 86.3987 78.1813 86.5487C78.0319 86.6987 77.8293 86.7838 77.6176 86.7855H77.6144ZM85.0938 89.0942C84.9003 89.0935 84.711 89.1504 84.5499 89.2576C84.3888 89.3648 84.2632 89.5174 84.189 89.6961C84.1148 89.8748 84.0954 90.0715 84.1332 90.2613C84.171 90.451 84.2644 90.6253 84.4014 90.7618C84.5385 90.8984 84.713 90.9912 84.9029 91.0284C85.0928 91.0656 85.2894 91.0456 85.4679 90.9708C85.6464 90.896 85.7986 90.7699 85.9052 90.6085C86.0119 90.447 86.0681 90.2575 86.0669 90.064C86.0644 89.8076 85.9614 89.5623 85.78 89.381C85.5987 89.1996 85.3534 89.0966 85.097 89.0942H85.0938ZM85.0938 90.8781C84.9331 90.88 84.7756 90.8341 84.641 90.7463C84.5065 90.6585 84.4011 90.5328 84.3382 90.3849C84.2752 90.2371 84.2576 90.074 84.2876 89.9161C84.3175 89.7583 84.3937 89.6129 84.5064 89.4984C84.6191 89.3839 84.7632 89.3055 84.9206 89.2731C85.0779 89.2406 85.2413 89.2557 85.3901 89.3163C85.5389 89.3769 85.6663 89.4803 85.7562 89.6134C85.8462 89.7466 85.8945 89.9034 85.8951 90.064C85.896 90.2775 85.8127 90.4826 85.6633 90.635C85.5138 90.7874 85.3104 90.8748 85.097 90.8781H85.0938ZM81.8088 126.882C81.6155 126.881 81.4263 126.938 81.2653 127.045C81.1042 127.152 80.9786 127.305 80.9043 127.483C80.83 127.662 80.8104 127.858 80.848 128.048C80.8856 128.238 80.9786 128.412 81.1153 128.549C81.2521 128.685 81.4263 128.778 81.616 128.816C81.8057 128.854 82.0022 128.834 82.1807 128.76C82.3593 128.685 82.5117 128.56 82.6187 128.399C82.7258 128.238 82.7826 128.049 82.7819 127.855C82.7819 127.597 82.6794 127.35 82.4969 127.167C82.3144 126.985 82.0669 126.882 81.8088 126.882ZM81.8088 128.666C81.649 128.667 81.4923 128.621 81.3587 128.533C81.2251 128.445 81.1206 128.32 81.0584 128.173C80.9962 128.025 80.9791 127.863 81.0093 127.706C81.0395 127.549 81.1156 127.404 81.228 127.291C81.3404 127.177 81.484 127.099 81.6406 127.067C81.7973 127.035 81.9599 127.05 82.1079 127.111C82.2559 127.171 82.3827 127.274 82.4721 127.407C82.5615 127.539 82.6096 127.695 82.6102 127.855C82.6115 127.962 82.5917 128.067 82.5521 128.166C82.5125 128.264 82.4537 128.354 82.3793 128.43C82.3048 128.506 82.2161 128.567 82.1182 128.608C82.0203 128.65 81.9152 128.672 81.8088 128.672V128.666ZM72.9048 120.528C72.7114 120.528 72.5223 120.585 72.3614 120.692C72.2006 120.8 72.0754 120.953 72.0019 121.131C71.9283 121.31 71.9098 121.507 71.9485 121.697C71.9873 121.886 72.0816 122.06 72.2195 122.195C72.3574 122.331 72.5325 122.422 72.7226 122.458C72.9127 122.494 73.1091 122.472 73.2867 122.395C73.4644 122.319 73.6152 122.191 73.7199 122.028C73.8246 121.866 73.8785 121.676 73.8747 121.482C73.8714 121.227 73.7674 120.982 73.5853 120.803C73.4032 120.623 73.1576 120.522 72.9017 120.522L72.9048 120.528ZM72.9048 122.306C72.6915 122.306 72.4868 122.221 72.336 122.07C72.1851 121.92 72.1003 121.715 72.1003 121.502C72.1003 121.288 72.1851 121.084 72.336 120.933C72.4868 120.782 72.6915 120.697 72.9048 120.697C73.1182 120.697 73.3229 120.782 73.4737 120.933C73.6246 121.084 73.7094 121.288 73.7094 121.502C73.7094 121.715 73.6246 121.92 73.4737 122.07C73.3229 122.221 73.1182 122.306 72.9048 122.306ZM83.4211 108.807C83.2275 108.806 83.0379 108.862 82.8763 108.969C82.7148 109.076 82.5887 109.228 82.514 109.407C82.4394 109.585 82.4195 109.782 82.457 109.972C82.4944 110.162 82.5875 110.337 82.7244 110.474C82.8614 110.61 83.0359 110.704 83.2259 110.741C83.4158 110.778 83.6126 110.759 83.7913 110.684C83.9699 110.609 84.1223 110.483 84.2291 110.322C84.3359 110.16 84.3923 109.97 84.391 109.777C84.3885 109.52 84.2849 109.275 84.1026 109.095C83.9204 108.915 83.6744 108.813 83.4179 108.813L83.4211 108.807ZM83.4211 110.585C83.2611 110.586 83.1043 110.54 82.9706 110.452C82.837 110.364 82.7325 110.238 82.6704 110.09C82.6082 109.943 82.5913 109.78 82.6218 109.623C82.6522 109.466 82.7286 109.322 82.8414 109.208C82.9541 109.094 83.098 109.017 83.2548 108.985C83.4117 108.953 83.5744 108.969 83.7224 109.03C83.8703 109.091 83.9968 109.195 84.0859 109.327C84.1749 109.46 84.2225 109.617 84.2225 109.777C84.2233 109.883 84.2031 109.989 84.1631 110.087C84.1231 110.186 84.064 110.275 83.9893 110.351C83.9145 110.427 83.8256 110.487 83.7275 110.528C83.6295 110.569 83.5243 110.591 83.4179 110.591L83.4211 110.585ZM84.391 96.8724C84.1986 96.8724 84.0104 96.9295 83.8504 97.0364C83.6904 97.1433 83.5656 97.2953 83.492 97.4731C83.4183 97.6509 83.3991 97.8466 83.4366 98.0354C83.4742 98.2241 83.5668 98.3975 83.7029 98.5336C83.839 98.6697 84.0124 98.7623 84.2012 98.7999C84.3899 98.8374 84.5856 98.8182 84.7634 98.7445C84.9412 98.6709 85.0932 98.5461 85.2001 98.3861C85.307 98.2261 85.3641 98.038 85.3641 97.8455C85.3624 97.588 85.2587 97.3416 85.0757 97.1604C84.8927 96.9792 84.6454 96.8779 84.3878 96.8788L84.391 96.8724ZM84.391 98.6469C84.1776 98.6469 83.973 98.5621 83.8221 98.4112C83.6712 98.2603 83.5865 98.0557 83.5865 97.8423C83.5865 97.629 83.6712 97.4243 83.8221 97.2734C83.973 97.1226 84.1776 97.0378 84.391 97.0378C84.6044 97.0378 84.809 97.1226 84.9599 97.2734C85.1108 97.4243 85.1955 97.629 85.1955 97.8423C85.1955 98.0557 85.1108 98.2603 84.9599 98.4112C84.809 98.5621 84.6044 98.6469 84.391 98.6469ZM91.1421 112.734C90.9193 112.735 90.7035 112.813 90.531 112.954C90.3584 113.095 90.2395 113.291 90.194 113.509C90.1486 113.727 90.1795 113.954 90.2814 114.153C90.3834 114.351 90.5503 114.508 90.7542 114.598L90.7224 114.388C90.5717 114.297 90.4549 114.16 90.3901 113.996C90.3253 113.833 90.3161 113.653 90.3638 113.483C90.4116 113.314 90.5136 113.165 90.6543 113.06C90.7949 112.954 90.9663 112.898 91.1421 112.9C91.2077 112.898 91.2732 112.907 91.3361 112.925C91.3647 112.877 91.3997 112.83 91.4315 112.776C91.3364 112.749 91.2377 112.737 91.139 112.741L91.1421 112.734ZM78.4221 102.31C78.2289 102.31 78.0399 102.366 77.8789 102.473C77.7179 102.58 77.5923 102.732 77.5179 102.911C77.4436 103.089 77.4238 103.285 77.4611 103.475C77.4984 103.665 77.5911 103.839 77.7275 103.976C77.8639 104.113 78.0379 104.206 78.2273 104.244C78.4168 104.282 78.6133 104.263 78.7918 104.189C78.9704 104.115 79.1231 103.99 79.2305 103.829C79.3379 103.669 79.3952 103.48 79.3952 103.286C79.3927 103.03 79.2898 102.785 79.1084 102.603C78.927 102.422 78.6818 102.319 78.4253 102.317L78.4221 102.31ZM78.4221 104.091C78.2621 104.092 78.1055 104.045 77.9722 103.956C77.8389 103.868 77.7349 103.742 77.6733 103.594C77.6118 103.446 77.5956 103.283 77.6266 103.127C77.6577 102.97 77.7347 102.825 77.8478 102.712C77.961 102.599 78.1052 102.522 78.2622 102.491C78.4191 102.46 78.5818 102.476 78.7295 102.538C78.8773 102.599 79.0034 102.703 79.0919 102.837C79.1804 102.97 79.2273 103.126 79.2267 103.286C79.2275 103.392 79.2074 103.497 79.1676 103.596C79.1277 103.694 79.0689 103.783 78.9944 103.858C78.92 103.934 78.8314 103.994 78.7337 104.035C78.636 104.076 78.5312 104.097 78.4253 104.097L78.4221 104.091ZM53.4242 112.741C53.2316 112.741 53.0433 112.798 52.8832 112.905C52.7231 113.012 52.5984 113.164 52.5249 113.342C52.4513 113.52 52.4322 113.716 52.47 113.905C52.5078 114.094 52.6008 114.267 52.7372 114.403C52.8736 114.539 53.0473 114.631 53.2363 114.668C53.4253 114.706 53.621 114.686 53.7988 114.612C53.9765 114.538 54.1283 114.412 54.2348 114.252C54.3413 114.092 54.3979 113.903 54.3972 113.711C54.3956 113.453 54.2924 113.207 54.1102 113.025C53.928 112.844 53.6814 112.741 53.4242 112.741ZM53.4242 114.515C53.2649 114.516 53.109 114.469 52.9763 114.381C52.8436 114.293 52.74 114.168 52.6786 114.021C52.6172 113.874 52.6008 113.712 52.6315 113.556C52.6622 113.399 52.7386 113.256 52.851 113.143C52.9634 113.03 53.1067 112.953 53.2629 112.922C53.419 112.89 53.5809 112.906 53.7281 112.967C53.8753 113.028 54.0012 113.131 54.0897 113.263C54.1783 113.396 54.2255 113.551 54.2255 113.711C54.2255 113.923 54.1412 114.128 53.991 114.278C53.8408 114.429 53.637 114.514 53.4242 114.515ZM72.9176 129.483C72.667 129.483 72.426 129.579 72.2448 129.752C72.0635 129.925 71.956 130.162 71.9445 130.412H72.113C72.1251 130.206 72.215 130.013 72.3644 129.871C72.5139 129.73 72.7116 129.65 72.9176 129.649C73.1226 129.649 73.3196 129.728 73.4681 129.87C73.6165 130.011 73.7052 130.204 73.7157 130.409H73.8875C73.8751 130.157 73.7654 129.919 73.5815 129.747C73.3976 129.574 73.1539 129.48 72.9017 129.483H72.9176ZM65.3937 114.254C65.2004 114.254 65.0116 114.312 64.8511 114.42C64.6907 114.528 64.5661 114.681 64.493 114.86C64.4199 115.038 64.4018 115.235 64.4409 115.424C64.4801 115.614 64.5746 115.787 64.7126 115.922C64.8507 116.058 65.0258 116.149 65.2158 116.184C65.4058 116.219 65.602 116.197 65.7795 116.121C65.9569 116.044 66.1075 115.917 66.2121 115.754C66.3167 115.592 66.3706 115.402 66.3668 115.208C66.3617 114.951 66.2548 114.706 66.0694 114.527C65.8841 114.348 65.6353 114.25 65.3778 114.254H65.3937ZM65.3937 116.032C65.2338 116.033 65.0773 115.986 64.9441 115.897C64.8108 115.809 64.7068 115.683 64.6452 115.536C64.5836 115.388 64.5671 115.225 64.5979 115.069C64.6287 114.912 64.7054 114.767 64.8182 114.654C64.9311 114.541 65.075 114.464 65.2318 114.432C65.3885 114.401 65.5511 114.417 65.6989 114.478C65.8466 114.539 65.973 114.642 66.0619 114.775C66.1508 114.908 66.1982 115.064 66.1982 115.224C66.1982 115.331 66.1769 115.437 66.1355 115.536C66.0942 115.635 66.0335 115.725 65.9572 115.8C65.8808 115.875 65.7903 115.934 65.6908 115.974C65.5913 116.014 65.4849 116.034 65.3778 116.032H65.3937ZM65.877 96.3827C65.685 96.384 65.4976 96.442 65.3385 96.5496C65.1794 96.6571 65.0557 96.8093 64.9829 96.9871C64.9101 97.1648 64.8916 97.3601 64.9296 97.5483C64.9676 97.7366 65.0604 97.9094 65.1965 98.045C65.3325 98.1805 65.5056 98.2728 65.694 98.3102C65.8823 98.3476 66.0776 98.3284 66.255 98.2551C66.4325 98.1817 66.5844 98.0575 66.6914 97.8981C66.7984 97.7386 66.8559 97.551 66.8565 97.359C66.8565 97.2291 66.8306 97.1006 66.7804 96.9809C66.7301 96.8612 66.6565 96.7527 66.5638 96.6618C66.4711 96.5709 66.3613 96.4994 66.2406 96.4515C66.1199 96.4036 65.9909 96.3802 65.8611 96.3827H65.877ZM65.877 98.1603C65.6637 98.1603 65.459 98.0756 65.3081 97.9247C65.1573 97.7738 65.0725 97.5692 65.0725 97.3558C65.0725 97.1424 65.1573 96.9378 65.3081 96.7869C65.459 96.636 65.6637 96.5512 65.877 96.5512C66.0904 96.5512 66.2951 96.636 66.4459 96.7869C66.5968 96.9378 66.6816 97.1424 66.6816 97.3558C66.6816 97.5692 66.5968 97.7738 66.4459 97.9247C66.2951 98.0756 66.0904 98.1603 65.877 98.1603ZM48.5778 121.158C48.516 121.158 48.4544 121.164 48.3934 121.174C48.3711 121.241 48.3489 121.301 48.3298 121.365C48.4386 121.338 48.5517 121.334 48.6621 121.353C48.7725 121.372 48.8777 121.414 48.971 121.476C49.0643 121.538 49.1436 121.619 49.204 121.713C49.2644 121.808 49.3045 121.914 49.3218 122.024C49.3391 122.135 49.3331 122.248 49.3043 122.356C49.2755 122.465 49.2245 122.566 49.1546 122.653C49.0846 122.741 48.9972 122.813 48.8979 122.865C48.7986 122.917 48.6896 122.947 48.5778 122.955C48.444 122.955 48.3123 122.921 48.195 122.856C48.0777 122.792 47.9786 122.699 47.9069 122.586L47.8401 122.777C47.9301 122.885 48.043 122.972 48.1705 123.031C48.2981 123.09 48.4372 123.121 48.5778 123.12C48.7105 123.128 48.8434 123.108 48.9682 123.063C49.093 123.017 49.2073 122.946 49.3039 122.855C49.4005 122.764 49.4775 122.654 49.5301 122.532C49.5827 122.41 49.6098 122.278 49.6098 122.145C49.6098 122.013 49.5827 121.881 49.5301 121.759C49.4775 121.637 49.4005 121.527 49.3039 121.436C49.2073 121.344 49.093 121.274 48.9682 121.228C48.8434 121.183 48.7105 121.163 48.5778 121.171V121.158ZM59.1768 119.568C58.9834 119.568 58.7944 119.626 58.6338 119.733C58.4731 119.841 58.3479 119.993 58.2742 120.172C58.2005 120.351 58.1816 120.548 58.2198 120.737C58.258 120.927 58.3516 121.101 58.4887 121.237C58.6259 121.373 58.8005 121.466 58.9903 121.503C59.1801 121.54 59.3765 121.519 59.5548 121.444C59.7331 121.37 59.8851 121.243 59.9916 121.082C60.0981 120.921 60.1543 120.731 60.153 120.538C60.1526 120.41 60.127 120.284 60.0778 120.166C60.0285 120.048 59.9564 119.941 59.8658 119.851C59.7751 119.761 59.6676 119.689 59.5494 119.641C59.4312 119.592 59.3046 119.568 59.1768 119.568ZM59.1768 121.346C59.017 121.346 58.8609 121.298 58.728 121.21C58.5952 121.121 58.4917 120.995 58.4306 120.847C58.3694 120.699 58.3534 120.537 58.3846 120.38C58.4158 120.224 58.4927 120.08 58.6056 119.967C58.7186 119.854 58.8625 119.777 59.0192 119.746C59.1759 119.715 59.3383 119.731 59.4859 119.792C59.6335 119.853 59.7596 119.956 59.8484 120.089C59.9371 120.222 59.9845 120.378 59.9845 120.538C59.9803 120.749 59.8934 120.951 59.7424 121.099C59.5914 121.247 59.3883 121.33 59.1768 121.33V121.346ZM74.6793 111.936C74.4861 111.932 74.2961 111.986 74.1336 112.091C73.9711 112.195 73.8434 112.346 73.7668 112.523C73.6902 112.701 73.6682 112.897 73.7036 113.087C73.7389 113.277 73.8301 113.452 73.9654 113.59C74.1007 113.728 74.274 113.823 74.4632 113.862C74.6525 113.901 74.8491 113.883 75.028 113.81C75.207 113.737 75.3601 113.612 75.4679 113.452C75.5757 113.291 75.6332 113.102 75.6333 112.909C75.6317 112.655 75.5313 112.411 75.3533 112.23C75.1752 112.048 74.9335 111.943 74.6793 111.936ZM74.6793 113.714C74.5202 113.714 74.3646 113.667 74.2323 113.578C74.1 113.49 73.9969 113.364 73.936 113.217C73.8751 113.07 73.8592 112.908 73.8902 112.752C73.9212 112.596 73.9979 112.453 74.1104 112.34C74.2229 112.228 74.3663 112.151 74.5223 112.12C74.6784 112.089 74.8402 112.105 74.9872 112.166C75.1342 112.227 75.2598 112.33 75.3482 112.462C75.4366 112.595 75.4838 112.75 75.4838 112.909C75.4822 113.122 75.3968 113.325 75.2461 113.475C75.0955 113.625 74.8919 113.71 74.6793 113.711V113.714ZM72.1544 81.6084C72.0864 81.7007 71.9991 81.7769 71.8986 81.8319C71.7981 81.8868 71.6868 81.9191 71.5724 81.9264L71.3498 82.0822C71.4044 82.0923 71.4597 82.0977 71.5152 82.0982C71.702 82.0977 71.8847 82.0439 72.0419 81.9431C72.1991 81.8422 72.3242 81.6985 72.4024 81.5289L72.1544 81.6084ZM75.1626 92.4363C74.9696 92.4376 74.7812 92.4961 74.6214 92.6044C74.4615 92.7127 74.3374 92.866 74.2647 93.0449C74.1919 93.2237 74.1739 93.4201 74.2128 93.6093C74.2517 93.7984 74.3458 93.9717 74.4832 94.1074C74.6206 94.243 74.7952 94.3349 74.9848 94.3713C75.1744 94.4077 75.3706 94.3871 75.5485 94.3121C75.7264 94.237 75.878 94.1109 75.9843 93.9497C76.0905 93.7884 76.1465 93.5993 76.1453 93.4062C76.1449 93.2779 76.1191 93.1509 76.0694 93.0326C76.0197 92.9143 75.9471 92.807 75.8558 92.7168C75.7644 92.6267 75.6562 92.5555 75.5372 92.5073C75.4183 92.4592 75.291 92.4351 75.1626 92.4363ZM75.1626 94.2203C75.0025 94.2197 74.8462 94.1717 74.7133 94.0823C74.5805 93.993 74.477 93.8663 74.416 93.7183C74.3551 93.5702 74.3393 93.4074 74.3707 93.2504C74.4021 93.0934 74.4792 92.9492 74.5924 92.836C74.7057 92.7228 74.8499 92.6456 75.0069 92.6143C75.1639 92.5829 75.3266 92.5986 75.4747 92.6596C75.6227 92.7206 75.7494 92.8241 75.8387 92.9569C75.9281 93.0898 75.9761 93.2461 75.9767 93.4062C75.9771 93.5133 75.9564 93.6193 75.9156 93.7183C75.8749 93.8172 75.8149 93.9071 75.7392 93.9828C75.6635 94.0585 75.5736 94.1184 75.4747 94.1592C75.3757 94.2 75.2697 94.2207 75.1626 94.2203Z" fill="white"/>
<path d="M83.0617 112.636C81.102 112.809 79.1578 113.127 77.2455 113.59C76.2915 113.831 75.3693 114.118 74.4407 114.423C73.9765 114.575 73.5122 114.712 73.0447 114.846C72.5586 115 72.0557 115.095 71.5469 115.129C71.5377 115.129 71.5288 115.132 71.5222 115.139C71.5156 115.146 71.512 115.154 71.512 115.164C71.512 115.173 71.5156 115.182 71.5222 115.189C71.5288 115.195 71.5377 115.199 71.5469 115.199C72.0282 115.222 72.5105 115.214 72.9907 115.173C73.4538 115.117 73.9127 115.029 74.3644 114.913C75.3184 114.674 76.2724 114.394 77.2264 114.146C79.1662 113.65 81.1028 113.151 83.0713 112.795C83.1762 112.782 83.1539 112.626 83.0617 112.636Z" fill="#263238"/>
<path d="M87.9016 114.372C86.2877 114.201 84.6654 114.123 83.0426 114.137C82.2317 114.137 81.4271 114.203 80.6162 114.283C80.2314 114.321 79.8467 114.366 79.4619 114.413C79.0771 114.461 78.6224 114.579 78.1899 114.626C78.1454 114.626 78.1454 114.699 78.1899 114.696C78.5906 114.661 79.0008 114.696 79.4015 114.696L80.613 114.664C81.4239 114.645 82.2317 114.633 83.0426 114.607C84.6612 114.55 86.2734 114.512 87.8952 114.515C87.9906 114.505 87.9843 114.378 87.9016 114.372Z" fill="#263238"/>
<path d="M66.2427 85.9745C54.0442 98.7613 38.8756 125.48 41.8775 130.813C45.2165 136.731 62.6683 118.636 62.1182 117.775C61.6476 117.024 67.8645 100.806 72.2783 89.0401C76.6921 77.2741 69.2573 82.8136 66.2427 85.9745Z" fill="#F7A9A0"/>
<path d="M51.2966 101.305L68.8121 104.457C68.8121 104.457 73.1846 92.0547 74.0495 85.1573C74.5361 81.2967 72.2687 81.1377 69.4131 83.1888C59.4184 90.3725 51.2966 101.305 51.2966 101.305Z" fill="#FFC120"/>
<path d="M57.5581 100.002C57.365 100.002 57.1764 100.06 57.0164 100.169C56.8564 100.277 56.7323 100.43 56.6597 100.609C56.5871 100.788 56.5694 100.984 56.6089 101.174C56.6484 101.363 56.7432 101.536 56.8814 101.671C57.0195 101.806 57.1947 101.896 57.3846 101.931C57.5745 101.967 57.7705 101.944 57.9478 101.868C58.125 101.791 58.2755 101.663 58.3799 101.501C58.4844 101.338 58.5381 101.149 58.5344 100.956C58.5293 100.7 58.4242 100.457 58.2416 100.279C58.0589 100.1 57.8134 100.001 57.5581 100.002ZM57.5581 101.779C57.3991 101.779 57.2437 101.732 57.1114 101.644C56.9792 101.556 56.8761 101.43 56.8151 101.283C56.7541 101.136 56.738 100.975 56.7688 100.819C56.7996 100.663 56.8759 100.519 56.9881 100.407C57.1003 100.294 57.2433 100.217 57.3992 100.186C57.5551 100.155 57.7167 100.17 57.8638 100.23C58.0108 100.291 58.1367 100.393 58.2255 100.525C58.3143 100.657 58.362 100.812 58.3626 100.971C58.3631 101.077 58.3425 101.182 58.3023 101.28C58.2621 101.378 58.2029 101.467 58.1281 101.542C58.0534 101.617 57.9645 101.677 57.8667 101.718C57.7689 101.758 57.664 101.779 57.5581 101.779ZM68.3192 87.1893C68.0603 87.1893 67.812 87.2922 67.6289 87.4753C67.4458 87.6584 67.343 87.9067 67.343 88.1656C67.343 88.4245 67.4458 88.6728 67.6289 88.8559C67.812 89.039 68.0603 89.1418 68.3192 89.1418C68.5781 89.1418 68.8264 89.039 69.0095 88.8559C69.1926 88.6728 69.2955 88.4245 69.2955 88.1656C69.2955 87.9067 69.1926 87.6584 69.0095 87.4753C68.8264 87.2922 68.5781 87.1893 68.3192 87.1893ZM68.3192 88.9733C68.1599 88.9721 68.0045 88.9237 67.8725 88.8343C67.7406 88.7449 67.6381 88.6186 67.5778 88.471C67.5176 88.3235 67.5023 88.1615 67.5339 88.0053C67.5655 87.8491 67.6427 87.7058 67.7556 87.5934C67.8684 87.4809 68.0121 87.4043 68.1684 87.3733C68.3247 87.3423 68.4867 87.3582 68.6339 87.4191C68.7812 87.4799 68.9072 87.5829 68.9961 87.7152C69.0849 87.8475 69.1327 88.0031 69.1333 88.1624C69.1337 88.269 69.113 88.3746 69.0724 88.4732C69.0318 88.5718 68.9721 88.6614 68.8967 88.7367C68.8213 88.8121 68.7318 88.8718 68.6332 88.9124C68.5346 88.953 68.429 88.9737 68.3224 88.9733H68.3192ZM60.665 91.0149C60.5183 91.0148 60.3735 91.0485 60.242 91.1134L59.7841 91.5841C59.7198 91.7134 59.6871 91.8562 59.6887 92.0007C59.6881 92.194 59.7449 92.3832 59.8519 92.5442C59.9589 92.7053 60.1114 92.8309 60.2899 92.9052C60.4684 92.9795 60.665 92.9991 60.8546 92.9615C61.0443 92.9239 61.2185 92.8309 61.3553 92.6942C61.492 92.5574 61.585 92.3832 61.6226 92.1935C61.6602 92.0039 61.6406 91.8073 61.5663 91.6288C61.492 91.4503 61.3664 91.2978 61.2053 91.1908C61.0443 91.0838 60.8551 91.027 60.6618 91.0276L60.665 91.0149ZM60.665 92.7988C60.5055 92.7982 60.3497 92.7504 60.2174 92.6614C60.0851 92.5724 59.982 92.4462 59.9213 92.2988C59.8606 92.1513 59.8448 91.9892 59.8761 91.8328C59.9074 91.6764 59.9842 91.5328 60.097 91.42C60.2098 91.3072 60.3534 91.2304 60.5098 91.1991C60.6662 91.1678 60.8283 91.1835 60.9758 91.2443C61.1232 91.305 61.2494 91.4081 61.3384 91.5404C61.4274 91.6727 61.4752 91.8285 61.4759 91.9879C61.4763 92.0943 61.4557 92.1997 61.4153 92.298C61.3749 92.3964 61.3154 92.4858 61.2404 92.5611C61.1654 92.6365 61.0762 92.6963 60.978 92.7371C60.8798 92.7778 60.7745 92.7988 60.6681 92.7988H60.665ZM68.5768 104.419L68.7803 104.457C68.7907 104.444 68.8038 104.435 68.8185 104.428C68.8312 104.388 68.8598 104.305 68.9043 104.18C68.7798 104.234 68.6689 104.316 68.58 104.419H68.5768ZM65.8579 96.3827C65.6658 96.384 65.4785 96.442 65.3194 96.5496C65.1602 96.6571 65.0365 96.8093 64.9637 96.9871C64.891 97.1648 64.8724 97.3601 64.9104 97.5483C64.9484 97.7366 65.0413 97.9094 65.1773 98.045C65.3133 98.1805 65.4864 98.2728 65.6748 98.3102C65.8632 98.3476 66.0584 98.3284 66.2359 98.2551C66.4134 98.1817 66.5652 98.0575 66.6722 97.898C66.7793 97.7386 66.8367 97.551 66.8373 97.359C66.8373 97.2308 66.8121 97.1038 66.763 96.9854C66.714 96.8669 66.642 96.7593 66.5514 96.6687C66.4607 96.578 66.3531 96.5061 66.2347 96.457C66.1162 96.408 65.9893 96.3827 65.8611 96.3827H65.8579ZM65.8579 98.1603C65.6445 98.1603 65.4399 98.0756 65.289 97.9247C65.1381 97.7738 65.0534 97.5692 65.0534 97.3558C65.0534 97.1424 65.1381 96.9378 65.289 96.7869C65.4399 96.636 65.6445 96.5512 65.8579 96.5512C66.0713 96.5512 66.2759 96.636 66.4268 96.7869C66.5777 96.9378 66.6624 97.1424 66.6624 97.3558C66.6624 97.5692 66.5777 97.7738 66.4268 97.9247C66.2759 98.0756 66.0713 98.1603 65.8579 98.1603ZM71.3943 82.0918C71.4293 82.0918 71.4674 82.0918 71.5056 82.0918C71.708 82.0916 71.9051 82.027 72.0684 81.9073C71.8395 81.9477 71.6148 82.0094 71.3975 82.0918H71.3943Z" fill="white"/>
<path d="M68.6882 101.591C66.036 100.882 58.7793 99.1683 53.9202 98.6722C53.8884 98.6722 53.8662 98.7804 53.8948 98.7867C57.8762 99.8107 65.947 101.277 68.6532 101.754C68.7104 101.76 68.7454 101.604 68.6882 101.591Z" fill="#263238"/>
<path d="M66.675 104.075C67.3969 104.145 68.1188 104.228 68.8343 104.326L68.6848 104.415C69.2063 102.507 69.7851 100.618 70.4052 98.7423C71.0253 96.8661 71.6772 95.0058 72.4468 93.1709C71.9888 95.098 71.4355 96.9869 70.8568 98.8949C70.278 100.803 69.6356 102.657 68.9488 104.511L68.9042 104.622L68.7961 104.6C68.088 104.434 67.381 104.26 66.675 104.075Z" fill="#263238"/>
<path d="M71.2861 96.9455C71.4419 96.5557 71.6425 96.1854 71.884 95.842C72.1212 95.4938 72.386 95.1652 72.6758 94.8594C72.6348 95.0683 72.5653 95.2705 72.4691 95.4604C72.3767 95.6503 72.2704 95.8331 72.1511 96.0074C71.9136 96.3634 71.6218 96.6799 71.2861 96.9455Z" fill="#263238"/>
<path d="M42.2718 131.334C45.579 134.915 53.2174 134.638 72.5105 135.751C75.1817 135.904 81.335 117.355 78.492 117.043C74.9114 116.652 60.9321 115.908 59.9018 115.984C51.2204 116.62 40.0268 128.911 42.2718 131.334Z" fill="#F7A9A0"/>
<path d="M74.6155 116.706C74.6155 116.706 82.7404 116.821 86.9921 118.204C92.6843 120.055 96.8342 123.995 98.4751 125.75C101.9 129.417 107.643 140.648 104.698 142.868C102.03 144.874 96.7483 133.099 96.7483 133.099C96.7483 133.099 104.126 144.229 100.469 146.045C96.8119 147.861 91.4473 133.849 91.4473 133.849C91.4473 133.849 98.7613 145.444 94.7036 146.732C91.6285 147.705 86.054 135.284 86.054 135.284C86.054 135.284 92.2804 145.291 89.1608 146.414C85.7137 147.686 79.8498 136.524 79.8498 136.524C71.4355 138.079 66.7927 135.379 63.7177 133.067C62.964 132.517 74.6155 116.706 74.6155 116.706Z" fill="#F7A9A0"/>
<path d="M94.4462 129.089C95.362 130.361 96.2938 131.649 97.092 133C97.8901 134.352 98.6406 135.732 99.318 137.15C100.956 140.632 101.436 143.068 101.391 142.922C100.301 139.44 97.5213 134.555 96.7231 133.204C95.9249 131.852 95.1999 130.466 94.4049 129.118C94.3603 129.083 94.4112 129.057 94.4462 129.089Z" fill="#263238"/>
<path d="M89.5011 131.878C90.5982 133.557 91.7462 135.182 92.7701 136.909C93.7941 138.635 94.6018 140.349 95.4986 142.133C95.5685 142.27 95.4731 142.261 95.3968 142.133C94.4428 140.384 93.3998 138.845 92.414 137.109C91.4282 135.373 90.506 133.611 89.4598 131.91C89.4577 131.907 89.4561 131.904 89.4552 131.901C89.4544 131.897 89.4541 131.894 89.4546 131.89C89.455 131.887 89.4561 131.884 89.4578 131.881C89.4595 131.878 89.4618 131.875 89.4645 131.873C89.4672 131.871 89.4703 131.869 89.4736 131.869C89.477 131.868 89.4804 131.867 89.4838 131.868C89.4872 131.868 89.4905 131.869 89.4934 131.871C89.4964 131.873 89.499 131.875 89.5011 131.878Z" fill="#263238"/>
<path d="M84.8393 133.512C86.6455 135.993 87.9906 138.801 89.2467 141.586C89.3103 141.726 89.1863 141.701 89.1132 141.564C87.6981 138.852 86.6073 136.715 84.7502 133.576C84.7216 133.525 84.8011 133.461 84.8393 133.512Z" fill="#263238"/>
<path d="M52.1967 118.932C53.7136 117.962 58.032 115.647 62.4109 116.006C62.4201 116.006 62.429 116.01 62.4356 116.017C62.4422 116.023 62.4458 116.032 62.4458 116.041C62.4458 116.051 62.4422 116.06 62.4356 116.066C62.429 116.073 62.4201 116.076 62.4109 116.076C58.827 116.242 53.7899 118.156 52.2349 118.986C52.1935 119.005 52.1522 118.951 52.1967 118.932Z" fill="#263238"/>
<path d="M74.2276 84.4227C74.4629 85.2336 78.6796 90.3566 82.4066 89.9814C83.6245 89.8605 83.2461 83.1762 83.2461 83.1762L83.3319 82.6769L84.5149 75.6809L76.1165 70.9109L74.9081 70.2749C74.9081 70.2749 74.711 72.2115 74.4884 74.622C74.4884 74.7364 74.4661 74.8477 74.4566 74.9654C74.447 75.0831 74.4248 75.2325 74.4152 75.3597C74.3771 75.7191 74.3389 76.0879 74.3103 76.4536C74.288 76.7335 74.2626 77.0038 74.2499 77.2995C74.2371 77.5953 74.2117 77.8815 74.1926 78.174C74.0432 81.0901 74.1322 84.0761 74.2276 84.4227Z" fill="#F7A9A0"/>
<path d="M74.4883 74.6124C75.289 76.5181 76.4947 78.2268 78.0218 79.6199C79.5489 81.013 81.3608 82.0572 83.3319 82.6801L84.5148 75.6841L76.1164 70.9141L74.908 70.2781C74.908 70.2781 74.7109 72.202 74.4883 74.6124Z" fill="#263238"/>
<path d="M92.5381 62.1531C96.1093 74.0845 89.3581 77.5697 86.7919 78.3361C84.4578 79.0325 76.4124 81.1091 71.6296 69.6102C66.8469 58.1113 71.2608 52.6799 76.5205 50.8037C81.7802 48.9275 88.9606 50.2217 92.5381 62.1531Z" fill="#F7A9A0"/>
<path d="M89.3962 59.6791C89.1287 59.7835 88.8559 59.8737 88.5789 59.9494C88.3054 60.0854 87.9945 60.1268 87.6949 60.0671C87.6042 60.0301 87.5283 59.9642 87.4789 59.8797C87.4295 59.7952 87.4093 59.6968 87.4214 59.5996C87.4754 59.4114 87.5788 59.2411 87.7208 59.1063C87.8629 58.9716 88.0384 58.8773 88.2291 58.8332C88.6032 58.6861 89.019 58.6861 89.393 58.8332C89.4724 58.8716 89.5394 58.9315 89.5864 59.0061C89.6334 59.0807 89.6585 59.167 89.6588 59.2552C89.6591 59.3433 89.6347 59.4298 89.5883 59.5048C89.5418 59.5797 89.4753 59.6401 89.3962 59.6791Z" fill="#263238"/>
<path d="M82.1587 64.8435C82.4024 64.6926 82.638 64.5292 82.8646 64.3537C83.1318 64.1629 83.3671 64.0357 83.5006 63.7177C83.5263 63.6235 83.5196 63.5233 83.4816 63.4334C83.4435 63.3434 83.3763 63.2688 83.2908 63.2217C83.1083 63.1504 82.9099 63.13 82.7168 63.1625C82.5236 63.1949 82.3428 63.2791 82.1937 63.4061C81.8506 63.6136 81.5968 63.9411 81.4813 64.3251C81.4635 64.4123 81.4705 64.5028 81.5017 64.5862C81.5328 64.6696 81.5869 64.7425 81.6575 64.7966C81.7282 64.8507 81.8127 64.8838 81.9014 64.8921C81.99 64.9004 82.0792 64.8835 82.1587 64.8435Z" fill="#263238"/>
<path d="M84.1429 65.2981C84.127 65.2695 84.092 65.3553 84.1048 65.3871C84.4037 66.1821 84.6104 67.1425 83.9744 67.6545C83.9553 67.6704 83.9744 67.7117 83.9966 67.699C84.8393 67.2729 84.5531 66.0009 84.1429 65.2981Z" fill="#263238"/>
<path d="M83.1412 64.7003C81.8152 65.0406 82.5943 67.6672 83.8217 67.3524C85.0492 67.0376 84.251 64.4173 83.1412 64.7003Z" fill="#263238"/>
<path d="M82.6801 64.9929C82.4925 65.2091 82.3621 65.5366 82.0791 65.6479C81.7961 65.7592 81.4431 65.5716 81.1569 65.3681C81.1283 65.3458 81.1124 65.3681 81.1219 65.4126C81.265 65.9182 81.6116 66.3666 82.1713 66.2903C82.731 66.214 82.9059 65.6543 82.8805 65.1201C82.8646 65.0215 82.7405 64.907 82.6801 64.9929Z" fill="#263238"/>
<path d="M88.6394 63.5778C88.6394 63.546 88.7157 63.6001 88.7221 63.6319C88.932 64.4555 89.3104 65.3618 90.1245 65.419C90.1499 65.419 90.1594 65.4635 90.1245 65.4667C89.1959 65.6003 88.7221 64.3919 88.6394 63.5778Z" fill="#263238"/>
<path d="M89.1228 62.5188C90.3948 62.0418 91.263 64.6398 90.0768 65.0819C88.8907 65.5239 88.048 62.9195 89.1228 62.5188Z" fill="#263238"/>
<path d="M89.7205 62.5093C89.9717 62.5793 90.2579 62.7637 90.5092 62.697C90.7604 62.6302 90.9162 62.2708 91.0084 61.9433C91.0084 61.9083 91.0466 61.9242 91.0593 61.9433C91.2374 62.4362 91.2437 63.0086 90.7985 63.263C90.3533 63.5174 89.9304 63.1708 89.6474 62.716C89.5965 62.6461 89.6188 62.4807 89.7205 62.5093Z" fill="#263238"/>
<path d="M86.3976 72.221C86.6424 72.3673 86.9064 72.5836 87.2117 72.539C87.5169 72.4588 87.8011 72.3134 88.0448 72.1129C88.0498 72.1082 88.0563 72.1054 88.0632 72.1051C88.07 72.1048 88.0768 72.107 88.0822 72.1112C88.0876 72.1155 88.0912 72.1215 88.0926 72.1282C88.0939 72.135 88.0927 72.1419 88.0893 72.1479C88.0121 72.3393 87.8843 72.506 87.7196 72.6304C87.555 72.7547 87.3596 72.832 87.1544 72.8539C86.9759 72.851 86.8021 72.7954 86.655 72.6942C86.5079 72.5929 86.394 72.4504 86.3276 72.2846C86.3022 72.2338 86.3626 72.202 86.3976 72.221Z" fill="#263238"/>
<path d="M88.8779 68.246C88.8779 68.246 89.4217 69.4036 89.5966 69.976C89.6125 70.03 89.4821 70.0968 89.2945 70.1668C89.2945 70.1668 89.2945 70.1668 89.2722 70.1668C88.809 70.4057 88.2893 70.5137 87.7692 70.4789C87.2492 70.4442 86.7485 70.2681 86.3212 69.9696C86.3106 69.9599 86.3036 69.947 86.3013 69.9328C86.299 69.9186 86.3015 69.9041 86.3085 69.8916C86.3155 69.8791 86.3265 69.8693 86.3398 69.8638C86.3531 69.8583 86.3678 69.8575 86.3816 69.8615C87.2638 70.135 88.2108 70.1161 89.0814 69.8074C89.0814 69.6357 88.0861 67.8549 88.1751 67.8199C88.6303 67.7215 89.0967 67.6851 89.5616 67.7118C88.5027 65.2664 87.0621 63.0118 86.0445 60.56C86.0379 60.5419 86.0379 60.522 86.0444 60.5039C86.0509 60.4857 86.0636 60.4704 86.0802 60.4606C86.0968 60.4508 86.1163 60.4471 86.1353 60.4501C86.1544 60.4532 86.1717 60.4628 86.1844 60.4773C87.8603 62.7351 89.1387 65.5208 90.2962 68.0171C90.4456 68.3383 89.1386 68.2715 88.8779 68.246Z" fill="#263238"/>
<path d="M72.8794 51.1121C72.7681 52.1711 67.6069 54.4766 64.1248 51.5923C60.6427 48.7081 62.4045 43.4038 67.3048 44.1702C70.4244 44.6567 73.1179 48.8702 72.8794 51.1121Z" fill="#263238"/>
<path d="M62.5283 46.7142C63.1333 45.4384 64.1536 44.4057 65.4221 43.7855C66.0092 43.4842 66.6651 43.3424 67.3241 43.3742C67.9832 43.406 68.6224 43.6103 69.1777 43.9667C70.3257 44.6631 71.1684 45.8175 71.8107 47.0481C72.1255 47.6778 72.3831 48.3344 72.5803 49.0102C72.8101 49.6861 72.9115 50.399 72.8792 51.1122C73.0641 50.3985 73.0924 49.6532 72.9619 48.9275C72.8501 48.1957 72.6526 47.4795 72.3736 46.7937C71.8355 45.3668 70.8649 44.1438 69.5975 43.2957C68.9298 42.8749 68.1605 42.643 67.3715 42.6248C66.588 42.6299 65.8198 42.8428 65.1455 43.2417C64.4963 43.6124 63.9294 44.1116 63.4795 44.7086C63.0295 45.3056 62.7059 45.988 62.5283 46.7142Z" fill="#263238"/>
<path d="M73.2386 70.5547C75.7094 69.6738 73.8746 63.9562 73.8746 63.9562C73.8746 63.9562 77.8018 61.7302 78.5587 58.2958C78.5587 58.2958 78.2407 61.1578 76.9496 62.7478C76.7334 63.0149 84.9537 59.2498 83.5227 52.435C83.5227 52.435 86.9825 58.4452 91.32 58.4325C91.5267 58.4325 88.7411 52.7626 87.0175 51.8149C86.0245 51.2559 84.963 50.8283 83.8597 50.5429C80.644 49.5098 77.1513 49.7792 74.1321 51.2934C69.165 53.8374 67.6227 60.5154 68.0011 62.9068C68.7388 67.6068 72.0651 70.9713 73.2386 70.5547Z" fill="#263238"/>
<path d="M77.274 62.7827C81.8468 60.9892 84.5276 56.7407 83.2874 51.8817C83.283 51.8559 83.2879 51.8294 83.3012 51.8068C83.3145 51.7842 83.3353 51.7671 83.36 51.7583C83.3847 51.7496 83.4117 51.7498 83.4362 51.759C83.4607 51.7682 83.4812 51.7858 83.4941 51.8086C85.7741 56.4068 81.7769 61.7175 77.2581 62.8813C77.1468 62.91 77.1627 62.8273 77.274 62.7827Z" fill="#263238"/>
<path d="M73.1592 70.2781C75.2326 68.1221 74.7651 65.4572 74.0751 62.8242C74.056 62.7479 74.1832 62.7002 74.2118 62.7797C75.1149 65.2823 75.7128 68.5259 73.3246 70.4594C73.2999 70.476 73.2701 70.4831 73.2406 70.4796C73.2111 70.4761 73.1838 70.462 73.1637 70.44C73.1437 70.4181 73.1322 70.3896 73.1314 70.3599C73.1306 70.3302 73.1405 70.3011 73.1592 70.2781Z" fill="#263238"/>
<path d="M83.2269 51.427C83.2259 51.421 83.2271 51.4149 83.2302 51.4097C83.2333 51.4045 83.2382 51.4006 83.244 51.3986C83.2497 51.3967 83.256 51.3969 83.2616 51.3992C83.2672 51.4015 83.2718 51.4057 83.2746 51.4111C84.7533 53.8788 86.4069 58.3245 90.0448 57.8316C90.0544 57.8297 90.0643 57.8297 90.0739 57.8316C90.0835 57.8336 90.0926 57.8374 90.1007 57.8429C90.1089 57.8483 90.1158 57.8553 90.1212 57.8635C90.1267 57.8716 90.1304 57.8808 90.1323 57.8904C90.1342 57.9 90.1341 57.9099 90.1322 57.9195C90.1303 57.9291 90.1264 57.9382 90.121 57.9463C90.1155 57.9544 90.1085 57.9614 90.1004 57.9668C90.0922 57.9722 90.0831 57.976 90.0735 57.9778C86.6232 58.7633 83.812 54.3018 83.2269 51.427Z" fill="#263238"/>
<path d="M68.4432 62.6174L67.8804 63.8195L71.8681 66.6242L73.0765 63.9181L68.4432 62.6174ZM71.566 65.3967L68.8153 63.6891L68.9393 63.4061L72.0112 64.4491L71.566 65.3967Z" fill="#FFC120"/>
<path d="M68.5704 60.5059L68.5005 61.832L73.245 62.9291L73.35 59.9653L68.5704 60.5059ZM72.5105 61.9051L69.3241 61.3741V61.0561L72.5613 60.8653L72.5105 61.9051Z" fill="#FFC120"/>
<path d="M73.792 69.9601C73.792 69.9601 70.3417 66.7037 68.8122 68.0107C67.2826 69.3177 70.4244 74.4216 72.6091 74.7555C72.887 74.8189 73.1749 74.8253 73.4554 74.7743C73.7359 74.7232 74.0031 74.6158 74.2409 74.4586C74.4787 74.3014 74.6822 74.0975 74.839 73.8594C74.9957 73.6213 75.1026 73.3539 75.1531 73.0733L73.792 69.9601Z" fill="#F7A9A0"/>
<path d="M69.7503 69.4512C69.7427 69.4512 69.7354 69.4542 69.7301 69.4596C69.7247 69.465 69.7217 69.4722 69.7217 69.4798C69.7217 69.4874 69.7247 69.4947 69.7301 69.5001C69.7354 69.5054 69.7427 69.5085 69.7503 69.5085C71.2894 69.7883 72.3134 70.9522 73.1211 72.2115C72.5869 71.7726 71.954 71.6041 71.353 72.2528C71.3212 72.2878 71.3689 72.3355 71.4071 72.3196C71.6407 72.1882 71.9094 72.1327 72.176 72.1606C72.4426 72.1885 72.6939 72.2985 72.8953 72.4754C73.231 72.7707 73.5328 73.1024 73.7953 73.4644C73.8907 73.5789 74.1133 73.4644 74.0274 73.3245L74.0083 73.2958C73.6681 71.4737 71.7346 69.2318 69.7503 69.4512Z" fill="#263238"/>
<path d="M93.5524 67.3779C93.664 67.9216 93.7046 68.4774 93.6732 69.0315C93.6536 69.5897 93.5463 70.1412 93.3552 70.666C93.3552 70.1095 93.3997 69.5689 93.422 69.022C93.4443 68.475 93.492 67.9312 93.5524 67.3779Z" fill="#263238"/>
<path d="M87.466 47.9385C87.4553 47.2303 87.5838 46.5269 87.8444 45.8683C88.1718 45.1803 88.7189 44.6209 89.3994 44.2783C89.6347 44.1352 89.9241 43.9762 90.2707 43.7949C90.6256 43.6108 90.9649 43.3981 91.2851 43.1589C91.6103 42.9118 91.8928 42.6132 92.1215 42.2749C92.35 41.9302 92.4686 41.5244 92.4617 41.111C92.4679 40.8096 92.4025 40.511 92.2709 40.2397C92.1525 39.9958 91.9846 39.7792 91.778 39.6037C91.5669 39.4268 91.3226 39.2938 91.0594 39.2125C90.7887 39.1277 90.5067 39.0848 90.223 39.0853C89.8965 39.0787 89.572 39.1382 89.269 39.2602C88.9937 39.3728 88.7357 39.5237 88.5026 39.7086C88.2749 39.8887 88.069 40.0946 87.8889 40.3224C87.7239 40.5252 87.571 40.7376 87.431 40.9584L85.3799 39.5464C85.5783 39.0722 85.8533 38.6339 86.194 38.249C86.5291 37.8753 86.9182 37.5538 87.3483 37.295C87.7861 37.0346 88.2581 36.8366 88.7507 36.7067C89.2581 36.5727 89.7809 36.5053 90.3057 36.5064C90.9035 36.5077 91.498 36.5955 92.0706 36.7671C92.6426 36.9349 93.1756 37.2149 93.6383 37.5907C94.117 37.9849 94.5025 38.4801 94.7672 39.0408C95.074 39.7003 95.2231 40.4221 95.2029 41.1492C95.2106 41.5984 95.1516 42.0464 95.028 42.4784C94.9155 42.8525 94.7449 43.2067 94.5224 43.5278C94.3012 43.8429 94.0392 44.1274 93.7433 44.3737C93.4243 44.6416 93.0863 44.886 92.732 45.1051C92.414 45.2927 92.096 45.474 91.778 45.6457C91.4737 45.8118 91.1852 46.0055 90.9163 46.2244C90.6638 46.4286 90.4486 46.675 90.2803 46.9527C90.1071 47.2574 90.0213 47.604 90.0322 47.9544L87.466 47.9385ZM87.5137 53.424V50.1772H90.1308V53.424H87.5137Z" fill="#FFC120"/>
<path d="M82.1872 37.7911C82.1962 38.3166 82.1011 38.8386 81.9073 39.3271C81.6669 39.8407 81.2617 40.2594 80.7562 40.5164C80.5813 40.6213 80.365 40.739 80.1202 40.8757C79.8554 41.0134 79.6032 41.1741 79.3665 41.3559C79.1204 41.5383 78.9056 41.7596 78.7305 42.011C78.5604 42.2669 78.4727 42.5687 78.4793 42.8759C78.4748 43.088 78.5178 43.2983 78.6053 43.4915C78.6928 43.6846 78.8226 43.8557 78.9849 43.9921C79.1421 44.1229 79.3237 44.2213 79.5192 44.2815C79.7198 44.3447 79.9289 44.3768 80.1393 44.3769C80.3777 44.3794 80.6143 44.3351 80.8357 44.2465C81.0387 44.1663 81.2301 44.0593 81.4049 43.9285C81.5734 43.7961 81.726 43.6445 81.8596 43.477C81.9823 43.3226 82.0959 43.1612 82.1999 42.9936L83.7199 44.043C83.5733 44.3926 83.3691 44.715 83.1157 44.997C82.8682 45.2754 82.5798 45.5146 82.2603 45.7061C81.9359 45.8995 81.5858 46.0462 81.2205 46.1418C80.4117 46.3552 79.5596 46.3398 78.7591 46.0973C78.332 45.9706 77.9349 45.7585 77.5921 45.474C77.2384 45.1808 76.953 44.814 76.7557 44.3992C76.531 43.9101 76.4222 43.3758 76.4377 42.8378C76.4328 42.5035 76.4768 42.1704 76.5681 41.8488C76.6522 41.5723 76.7788 41.3105 76.9434 41.0729C77.1068 40.8358 77.3015 40.6219 77.5221 40.4369C77.7586 40.2384 78.0094 40.0577 78.2726 39.8963C78.5047 39.7564 78.7369 39.6196 78.969 39.4924C79.194 39.3707 79.4069 39.228 79.605 39.0663C79.7927 38.9133 79.953 38.7294 80.0788 38.5225C80.2052 38.2965 80.2678 38.0404 80.2601 37.7816L82.1872 37.7911ZM82.1522 33.7207V36.1312H80.2156V33.708L82.1522 33.7207Z" fill="#455A64"/>
<path d="M106.384 63.422C106.392 63.9474 106.297 64.4693 106.104 64.9579C105.86 65.4724 105.45 65.8901 104.94 66.144C104.765 66.249 104.549 66.3666 104.304 66.5034C104.041 66.6418 103.79 66.8024 103.554 66.9836C103.312 67.1656 103.102 67.387 102.933 67.6386C102.763 67.8932 102.674 68.1939 102.679 68.5004C102.677 68.7207 102.726 68.9385 102.822 69.1364C102.91 69.317 103.035 69.4773 103.188 69.6071C103.344 69.7384 103.524 69.8369 103.719 69.8964C103.92 69.9591 104.129 69.9913 104.339 69.9918C104.579 69.9946 104.816 69.9503 105.039 69.8615C105.243 69.7763 105.434 69.6639 105.608 69.5276C105.776 69.3943 105.928 69.2428 106.063 69.076C106.184 68.9208 106.298 68.7595 106.403 68.5926L107.923 69.642C107.776 69.9916 107.572 70.3141 107.319 70.596C107.071 70.8737 106.782 71.1128 106.463 71.3052C106.139 71.498 105.789 71.6446 105.423 71.7408C105.047 71.8405 104.659 71.8908 104.269 71.8903C103.825 71.8889 103.384 71.8236 102.959 71.6963C102.535 71.5723 102.14 71.3647 101.798 71.0858C101.444 70.7924 101.158 70.4257 100.959 70.0109C100.735 69.5216 100.626 68.9875 100.641 68.4495C100.634 68.1152 100.678 67.7818 100.771 67.4606C100.855 67.184 100.982 66.9222 101.146 66.6846C101.309 66.4476 101.502 66.2337 101.722 66.0486C101.96 65.8509 102.212 65.6702 102.476 65.508C102.708 65.3681 102.94 65.2314 103.172 65.1042C103.396 64.9817 103.609 64.8391 103.808 64.6781C103.995 64.525 104.154 64.341 104.279 64.1343C104.408 63.9092 104.471 63.6526 104.463 63.3933L106.384 63.422ZM106.349 59.3516V61.762H104.409V59.3516H106.349Z" fill="#455A64"/>
<path d="M52.6163 72.7997C52.6074 72.2733 52.7025 71.7502 52.8962 71.2606C53.1372 70.7481 53.5423 70.3307 54.0473 70.0745C54.2222 69.9695 54.4385 69.8487 54.6833 69.7151C54.946 69.5755 55.197 69.4149 55.4338 69.2349C55.6751 69.0521 55.8846 68.8308 56.0539 68.5799C56.2246 68.3241 56.3133 68.0224 56.3083 67.7149C56.3117 67.4945 56.2627 67.2765 56.1652 67.0789C56.0774 66.8973 55.9529 66.736 55.7995 66.6051C55.6437 66.4747 55.463 66.3773 55.2684 66.3189C55.0628 66.2536 54.8482 66.2204 54.6324 66.2203C54.3926 66.217 54.1546 66.2624 53.9328 66.3539C53.7292 66.4328 53.5376 66.5398 53.3636 66.6719C53.1958 66.8063 53.0433 66.9588 52.9089 67.1266C52.7866 67.2802 52.673 67.4405 52.5686 67.6068L51.0486 66.5574C51.196 66.2082 51.4001 65.8859 51.6528 65.6034C51.9002 65.3258 52.1887 65.0877 52.5082 64.8974C52.8328 64.7036 53.1828 64.5559 53.5481 64.4586C53.9249 64.3599 54.3129 64.3107 54.7024 64.3123C55.146 64.3126 55.5873 64.3768 56.0126 64.5031C56.4358 64.6284 56.8302 64.8359 57.1733 65.1136C57.5275 65.407 57.814 65.7737 58.0128 66.1885C58.2362 66.6791 58.345 67.2141 58.3308 67.753C58.3373 68.0863 58.2933 68.4187 58.2004 68.7389C58.1164 69.0164 57.9898 69.2792 57.8252 69.518C57.6622 69.7544 57.4686 69.9683 57.2496 70.1539C57.0115 70.3528 56.7597 70.5345 56.4959 70.6977C56.2648 70.8377 56.0327 70.9712 55.7995 71.0984C55.5749 71.2219 55.3621 71.3656 55.1635 71.5277C54.9761 71.6789 54.8168 71.8619 54.6929 72.0683C54.5636 72.2945 54.4998 72.5521 54.5084 72.8124L52.6163 72.7997ZM52.6513 76.8701V74.4565H54.5911V76.8701H52.6513Z" fill="#FFC120"/>
</svg>
